<?xml version="1.0" encoding="UTF-8"?>
<svg width="600px" height="449px" viewBox="0 0 600 449" version="1.1" xmlns="http://www.w3.org/2000/svg" xmlns:xlink="http://www.w3.org/1999/xlink">
    <title>illustration-01</title>
    <defs>
        <linearGradient x1="50.0160933%" y1="99.9819644%" x2="50.0160933%" y2="0.000900501915%" id="linearGradient-1">
            <stop stop-color="#808080" stop-opacity="0.25" offset="0%"></stop>
            <stop stop-color="#808080" stop-opacity="0.12" offset="54%"></stop>
            <stop stop-color="#808080" stop-opacity="0.1" offset="100%"></stop>
        </linearGradient>
        <linearGradient x1="50.0283536%" y1="99.9757635%" x2="50.0283536%" y2="-0.106057071%" id="linearGradient-2">
            <stop stop-color="#808080" stop-opacity="0.25" offset="0%"></stop>
            <stop stop-color="#808080" stop-opacity="0.12" offset="54%"></stop>
            <stop stop-color="#808080" stop-opacity="0.1" offset="100%"></stop>
        </linearGradient>
        <linearGradient x1="49.9265533%" y1="99.961291%" x2="49.9265533%" y2="-0.0777286366%" id="linearGradient-3">
            <stop stop-color="#808080" stop-opacity="0.25" offset="0%"></stop>
            <stop stop-color="#808080" stop-opacity="0.12" offset="54%"></stop>
            <stop stop-color="#808080" stop-opacity="0.1" offset="100%"></stop>
        </linearGradient>
        <linearGradient x1="50%" y1="99.9899134%" x2="50%" y2="0%" id="linearGradient-4">
            <stop stop-color="#808080" stop-opacity="0.25" offset="0%"></stop>
            <stop stop-color="#808080" stop-opacity="0.12" offset="54%"></stop>
            <stop stop-color="#808080" stop-opacity="0.1" offset="100%"></stop>
        </linearGradient>
        <linearGradient x1="49.9703264%" y1="100.03535%" x2="49.9703264%" y2="-1.33954094e-12%" id="linearGradient-5">
            <stop stop-color="#808080" stop-opacity="0.25" offset="0%"></stop>
            <stop stop-color="#808080" stop-opacity="0.12" offset="54%"></stop>
            <stop stop-color="#808080" stop-opacity="0.1" offset="100%"></stop>
        </linearGradient>
        <linearGradient x1="50.0206103%" y1="99.9786968%" x2="50.0206103%" y2="-0.045911383%" id="linearGradient-6">
            <stop stop-color="#808080" stop-opacity="0.25" offset="0%"></stop>
            <stop stop-color="#808080" stop-opacity="0.12" offset="54%"></stop>
            <stop stop-color="#808080" stop-opacity="0.1" offset="100%"></stop>
        </linearGradient>
        <linearGradient x1="50.0244375%" y1="78.3480592%" x2="50.0244375%" y2="21.3480592%" id="linearGradient-7">
            <stop stop-color="#808080" stop-opacity="0.25" offset="0%"></stop>
            <stop stop-color="#808080" stop-opacity="0.12" offset="54%"></stop>
            <stop stop-color="#808080" stop-opacity="0.1" offset="100%"></stop>
        </linearGradient>
        <linearGradient x1="50.000587%" y1="99.9273095%" x2="50.000587%" y2="0.101498152%" id="linearGradient-8">
            <stop stop-color="#808080" stop-opacity="0.25" offset="0%"></stop>
            <stop stop-color="#808080" stop-opacity="0.12" offset="54%"></stop>
            <stop stop-color="#808080" stop-opacity="0.1" offset="100%"></stop>
        </linearGradient>
        <linearGradient x1="49.9882812%" y1="99.7820184%" x2="49.9882812%" y2="0%" id="linearGradient-9">
            <stop stop-color="#808080" stop-opacity="0.25" offset="0%"></stop>
            <stop stop-color="#808080" stop-opacity="0.12" offset="54%"></stop>
            <stop stop-color="#808080" stop-opacity="0.1" offset="100%"></stop>
        </linearGradient>
        <linearGradient x1="50.0320718%" y1="100%" x2="50.0320718%" y2="0.0198333994%" id="linearGradient-10">
            <stop stop-color="#808080" stop-opacity="0.25" offset="0%"></stop>
            <stop stop-color="#808080" stop-opacity="0.12" offset="54%"></stop>
            <stop stop-color="#808080" stop-opacity="0.1" offset="100%"></stop>
        </linearGradient>
        <linearGradient x1="50%" y1="100%" x2="50%" y2="1.35924005e-13%" id="linearGradient-11">
            <stop stop-color="#808080" stop-opacity="0.25" offset="0%"></stop>
            <stop stop-color="#808080" stop-opacity="0.12" offset="54%"></stop>
            <stop stop-color="#808080" stop-opacity="0.1" offset="100%"></stop>
        </linearGradient>
        <linearGradient x1="50.0035849%" y1="100%" x2="50.0035849%" y2="-0.00732930327%" id="linearGradient-12">
            <stop stop-color="#808080" stop-opacity="0.25" offset="0%"></stop>
            <stop stop-color="#808080" stop-opacity="0.12" offset="54%"></stop>
            <stop stop-color="#808080" stop-opacity="0.1" offset="100%"></stop>
        </linearGradient>
        <linearGradient x1="49.9940241%" y1="99.8988038%" x2="49.9940241%" y2="-0.123569167%" id="linearGradient-13">
            <stop stop-color="#808080" stop-opacity="0.25" offset="0%"></stop>
            <stop stop-color="#808080" stop-opacity="0.12" offset="54%"></stop>
            <stop stop-color="#808080" stop-opacity="0.1" offset="100%"></stop>
        </linearGradient>
        <linearGradient x1="49.9748567%" y1="99.9866956%" x2="49.9748567%" y2="-0.0291804161%" id="linearGradient-14">
            <stop stop-color="#808080" stop-opacity="0.25" offset="0%"></stop>
            <stop stop-color="#808080" stop-opacity="0.12" offset="54%"></stop>
            <stop stop-color="#808080" stop-opacity="0.1" offset="100%"></stop>
        </linearGradient>
        <linearGradient x1="50.0402248%" y1="99.9972061%" x2="50.0402248%" y2="-0.180464178%" id="linearGradient-15">
            <stop stop-color="#808080" stop-opacity="0.25" offset="0%"></stop>
            <stop stop-color="#808080" stop-opacity="0.12" offset="54%"></stop>
            <stop stop-color="#808080" stop-opacity="0.1" offset="100%"></stop>
        </linearGradient>
        <linearGradient x1="50.0402248%" y1="99.7968609%" x2="50.0402248%" y2="-0.189908394%" id="linearGradient-16">
            <stop stop-color="#808080" stop-opacity="0.25" offset="0%"></stop>
            <stop stop-color="#808080" stop-opacity="0.12" offset="54%"></stop>
            <stop stop-color="#808080" stop-opacity="0.1" offset="100%"></stop>
        </linearGradient>
        <linearGradient x1="49.8280662%" y1="100%" x2="49.8280662%" y2="0%" id="linearGradient-17">
            <stop stop-color="#808080" stop-opacity="0.25" offset="0%"></stop>
            <stop stop-color="#808080" stop-opacity="0.12" offset="54%"></stop>
            <stop stop-color="#808080" stop-opacity="0.1" offset="100%"></stop>
        </linearGradient>
        <linearGradient x1="49.9385796%" y1="99.8888889%" x2="49.9385796%" y2="-0.222222222%" id="linearGradient-18">
            <stop stop-color="#808080" stop-opacity="0.25" offset="0%"></stop>
            <stop stop-color="#808080" stop-opacity="0.12" offset="54%"></stop>
            <stop stop-color="#808080" stop-opacity="0.1" offset="100%"></stop>
        </linearGradient>
        <linearGradient x1="50.0072135%" y1="100.021184%" x2="50.0072135%" y2="0.0947575955%" id="linearGradient-19">
            <stop stop-color="#808080" stop-opacity="0.25" offset="0%"></stop>
            <stop stop-color="#808080" stop-opacity="0.12" offset="54%"></stop>
            <stop stop-color="#808080" stop-opacity="0.1" offset="100%"></stop>
        </linearGradient>
        <linearGradient x1="49.9860339%" y1="100.005102%" x2="49.9860339%" y2="0%" id="linearGradient-20">
            <stop stop-color="#808080" stop-opacity="0.25" offset="0%"></stop>
            <stop stop-color="#808080" stop-opacity="0.12" offset="54%"></stop>
            <stop stop-color="#808080" stop-opacity="0.1" offset="100%"></stop>
        </linearGradient>
        <linearGradient x1="49.783088%" y1="100.11796%" x2="49.783088%" y2="0%" id="linearGradient-21">
            <stop stop-color="#808080" stop-opacity="0.25" offset="0%"></stop>
            <stop stop-color="#808080" stop-opacity="0.12" offset="54%"></stop>
            <stop stop-color="#808080" stop-opacity="0.1" offset="100%"></stop>
        </linearGradient>
        <linearGradient x1="49.7905312%" y1="100.035378%" x2="49.7905312%" y2="0%" id="linearGradient-22">
            <stop stop-color="#808080" stop-opacity="0.25" offset="0%"></stop>
            <stop stop-color="#808080" stop-opacity="0.12" offset="54%"></stop>
            <stop stop-color="#808080" stop-opacity="0.1" offset="100%"></stop>
        </linearGradient>
        <linearGradient x1="51.108148%" y1="100.086812%" x2="51.108148%" y2="0%" id="linearGradient-23">
            <stop stop-color="#808080" stop-opacity="0.25" offset="0%"></stop>
            <stop stop-color="#808080" stop-opacity="0.12" offset="54%"></stop>
            <stop stop-color="#808080" stop-opacity="0.1" offset="100%"></stop>
        </linearGradient>
        <linearGradient x1="49.9813641%" y1="100.109496%" x2="49.9813641%" y2="0.57369339%" id="linearGradient-24">
            <stop stop-color="#808080" stop-opacity="0.25" offset="0%"></stop>
            <stop stop-color="#808080" stop-opacity="0.12" offset="54%"></stop>
            <stop stop-color="#808080" stop-opacity="0.1" offset="100%"></stop>
        </linearGradient>
        <linearGradient x1="50%" y1="100.006316%" x2="50%" y2="0%" id="linearGradient-25">
            <stop stop-color="#808080" stop-opacity="0.25" offset="0%"></stop>
            <stop stop-color="#808080" stop-opacity="0.12" offset="54%"></stop>
            <stop stop-color="#808080" stop-opacity="0.1" offset="100%"></stop>
        </linearGradient>
        <linearGradient x1="49.993395%" y1="66.72%" x2="49.993395%" y2="32.72%" id="linearGradient-26">
            <stop stop-color="#808080" stop-opacity="0.25" offset="0%"></stop>
            <stop stop-color="#808080" stop-opacity="0.12" offset="54%"></stop>
            <stop stop-color="#808080" stop-opacity="0.1" offset="100%"></stop>
        </linearGradient>
        <linearGradient x1="49.997016%" y1="100.024637%" x2="49.997016%" y2="0%" id="linearGradient-27">
            <stop stop-color="#808080" stop-opacity="0.25" offset="0%"></stop>
            <stop stop-color="#808080" stop-opacity="0.12" offset="54%"></stop>
            <stop stop-color="#808080" stop-opacity="0.1" offset="100%"></stop>
        </linearGradient>
        <linearGradient x1="49.9955761%" y1="99.9741892%" x2="49.9955761%" y2="-0.0141859494%" id="linearGradient-28">
            <stop stop-color="#808080" stop-opacity="0.25" offset="0%"></stop>
            <stop stop-color="#808080" stop-opacity="0.12" offset="54%"></stop>
            <stop stop-color="#808080" stop-opacity="0.1" offset="100%"></stop>
        </linearGradient>
        <linearGradient x1="49.7125121%" y1="100%" x2="49.7125121%" y2="0%" id="linearGradient-29">
            <stop stop-color="#808080" stop-opacity="0.25" offset="0%"></stop>
            <stop stop-color="#808080" stop-opacity="0.12" offset="54%"></stop>
            <stop stop-color="#808080" stop-opacity="0.1" offset="100%"></stop>
        </linearGradient>
        <linearGradient x1="49.8882878%" y1="100%" x2="49.8882878%" y2="-0.0358937545%" id="linearGradient-30">
            <stop stop-color="#808080" stop-opacity="0.25" offset="0%"></stop>
            <stop stop-color="#808080" stop-opacity="0.12" offset="54%"></stop>
            <stop stop-color="#808080" stop-opacity="0.1" offset="100%"></stop>
        </linearGradient>
        <linearGradient x1="50.0332566%" y1="99.8580861%" x2="50.0332566%" y2="-0.133902898%" id="linearGradient-31">
            <stop stop-color="#808080" stop-opacity="0.25" offset="0%"></stop>
            <stop stop-color="#808080" stop-opacity="0.12" offset="54%"></stop>
            <stop stop-color="#808080" stop-opacity="0.1" offset="100%"></stop>
        </linearGradient>
        <linearGradient x1="50.0832658%" y1="100%" x2="50.0832658%" y2="0%" id="linearGradient-32">
            <stop stop-color="#808080" stop-opacity="0.25" offset="0%"></stop>
            <stop stop-color="#808080" stop-opacity="0.12" offset="54%"></stop>
            <stop stop-color="#808080" stop-opacity="0.1" offset="100%"></stop>
        </linearGradient>
        <linearGradient x1="50.0735595%" y1="99.959167%" x2="50.0735595%" y2="4.64217386e-13%" id="linearGradient-33">
            <stop stop-color="#808080" stop-opacity="0.25" offset="0%"></stop>
            <stop stop-color="#808080" stop-opacity="0.12" offset="54%"></stop>
            <stop stop-color="#808080" stop-opacity="0.1" offset="100%"></stop>
        </linearGradient>
        <linearGradient x1="50.0087161%" y1="100.128096%" x2="50.0087161%" y2="0.0426985482%" id="linearGradient-34">
            <stop stop-color="#808080" stop-opacity="0.25" offset="0%"></stop>
            <stop stop-color="#808080" stop-opacity="0.12" offset="54%"></stop>
            <stop stop-color="#808080" stop-opacity="0.1" offset="100%"></stop>
        </linearGradient>
        <linearGradient x1="49.9915155%" y1="100.132392%" x2="49.9915155%" y2="0.13239188%" id="linearGradient-35">
            <stop stop-color="#808080" stop-opacity="0.25" offset="0%"></stop>
            <stop stop-color="#808080" stop-opacity="0.12" offset="54%"></stop>
            <stop stop-color="#808080" stop-opacity="0.1" offset="100%"></stop>
        </linearGradient>
    </defs>
    <g id="Admin" stroke="none" stroke-width="1" fill="none" fill-rule="evenodd">
        <g id="undraw_setup_wizard_r6mr" transform="translate(-0.000000, 0.000000)">
            <path d="M341.968231,62.8769553 C305.438639,61.6126431 270.647476,49.8161587 237.425415,36.9134011 C204.203354,24.0106434 171.297371,9.69682309 135.642638,2.88421222 C112.710047,-1.5183035 86.4812127,-2.1391711 68.0075794,10.1596517 C50.2338333,21.9900016 44.4766973,42.4334785 41.389292,61.3642961 C39.0638607,75.6216739 37.6979519,90.6297371 44.064667,103.978391 C48.4897597,113.246251 56.3352685,121.035317 61.7650379,129.908079 C80.6563458,160.799065 67.3020481,198.88647 46.8359942,229.043703 C37.2407676,243.188195 26.093372,256.700532 18.6824706,271.742461 C11.2715691,286.78439 7.84550879,304.055797 14.3307531,319.419448 C20.7539107,334.658926 36.0667634,346.08289 52.6552169,354.125947 C86.3457507,370.466054 126.030479,375.139494 164.755685,377.792292 C250.452346,383.651024 336.600548,381.116755 422.52298,378.571198 C454.32269,377.634253 486.257862,376.680374 517.5383,371.764232 C534.911305,369.032414 552.84309,364.697629 565.457991,354.233188 C581.465086,340.952266 585.432995,318.46557 574.703274,301.809386 C556.709402,273.875988 506.972263,266.939203 494.379939,236.962587 C487.460087,220.458797 494.566199,202.081116 504.629898,186.779552 C526.213514,153.946944 562.387518,125.144332 564.289631,87.6213514 C565.599097,61.8497017 548.20916,36.0385422 521.319948,23.8413159 C493.138204,11.0570876 454.051766,12.6656991 433.269634,33.8203516 C411.849702,55.6128044 374.213836,64.0001613 341.968231,62.8769553 Z" id="Path" fill="#4D7CFE" opacity="0.1"></path>
            <rect id="Rectangle" fill="#E8E9ED" x="0" y="69.6952104" width="146.473956" height="146.473956"></rect>
            <rect id="Rectangle" fill="#E8E9ED" x="452.945493" y="69.6952104" width="146.473956" height="146.473956"></rect>
            <path d="M82.0617642,18.0785357 L80.5999032,16.5828092 C80.5411022,16.5170507 80.4566947,16.4799938 80.368489,16.4812127 C80.2799737,16.4784313 80.1949349,16.5157654 80.1370747,16.5828092 L70.0338655,26.7424609 L66.3538139,23.0680535 C66.2940181,23.0037814 66.210186,22.9672724 66.1223996,22.9672724 C66.0346132,22.9672724 65.9507811,23.0037814 65.8909853,23.0680535 L64.4178358,24.541203 C64.3529584,24.6029911 64.3162393,24.6886689 64.3162393,24.7782616 C64.3162393,24.8678542 64.3529584,24.9535321 64.4178358,25.0153201 L69.0574101,29.6492501 C69.3065095,29.9251052 69.6519944,30.0948171 70.022577,30.1233672 C70.3886458,30.091391 70.7311034,29.9291742 70.9877439,29.6661829 L70.9877439,29.6661829 L82.0674085,18.5526528 C82.1881396,18.4176714 82.1881396,18.2135172 82.0674085,18.0785357 L82.0617642,18.0785357 Z" id="Path" fill="#3ACC6C" opacity="0.5"></path>
            <path d="M73.2341558,8.39858175 C80.3392164,8.40373317 86.4515602,13.4263786 87.8339982,20.3956524 C89.2164362,27.3649261 85.4840591,34.3403886 78.9189047,37.0571254 C72.3537502,39.7738622 64.7837401,37.4754583 60.8373048,31.5671963 C56.8908696,25.6589342 57.6668066,17.7858385 62.690695,12.7616513 C65.4817612,9.9580407 69.2781289,8.38705986 73.2341558,8.39858175 L73.2341558,8.39858175 Z M73.2341558,6.07885454 C66.26399,6.07885454 59.9802579,10.2778868 57.3134186,16.7176987 C54.6465792,23.1575107 56.121902,30.5696999 61.0513608,35.497544 C65.9808195,40.4253881 73.3934916,41.8982826 79.8324296,39.2293337 C86.2713675,36.5603848 90.4683369,30.2752774 90.4660548,23.3051121 C90.4675528,18.734988 88.6523555,14.3516964 85.4202603,11.1206599 C82.1881651,7.88962342 77.8042791,6.07586218 73.2341558,6.07885454 L73.2341558,6.07885454 Z" id="Shape" fill="#4D7CFE" fill-rule="nonzero" opacity="0.5"></path>
            <path d="M195.189486,66.2409289 L193.34946,64.3557491 C193.275557,64.2752712 193.170856,64.2301063 193.061603,64.2315756 C192.950109,64.2269173 192.842399,64.2724869 192.768102,64.3557491 L180.051605,77.1681987 L175.417675,72.5399129 C175.342952,72.4605964 175.238788,72.4156631 175.129818,72.4157394 C175.019158,72.4154437 174.913164,72.4602876 174.836317,72.5399129 L172.979358,74.3968715 C172.897508,74.4736897 172.851077,74.5809424 172.851077,74.6931946 C172.851077,74.8054469 172.897508,74.9126996 172.979358,74.9895178 L178.815514,80.8143848 C179.130973,81.1608198 179.56737,81.3729575 180.034672,81.4070311 C180.491423,81.3678322 180.919444,81.1678224 181.242542,80.842606 L181.242542,80.842606 L195.183841,66.8222867 C195.318071,66.6580867 195.318071,66.4220617 195.183841,66.2578616 L195.189486,66.2409289 Z" id="Path" fill="#3ACC6C" opacity="0.8"></path>
            <path d="M184.070311,54.0492413 C193.023138,54.0513389 200.727959,60.3769431 202.473225,69.1580115 C204.218491,77.9390798 199.518178,86.7302449 191.246558,90.1556522 C182.974938,93.5810596 173.435506,90.6867956 168.461686,83.2427217 C163.487867,75.7986477 164.464779,65.8778025 170.795033,59.5468473 C174.306762,56.0125951 179.088053,54.0325876 184.070311,54.0492413 L184.070311,54.0492413 Z M184.070311,51.1312684 C172.090782,51.1312684 162.379455,60.8425963 162.379455,72.8221255 C162.379455,84.8016546 172.090782,94.5129818 184.070311,94.5129818 C196.04984,94.5129818 205.761168,84.8016546 205.761168,72.8221255 C205.762665,67.0688937 203.477866,61.5508693 199.409717,57.48272 C195.341567,53.4145706 189.823543,51.1297715 184.070311,51.1312684 L184.070311,51.1312684 Z" id="Shape" fill="#4D7CFE" fill-rule="nonzero" opacity="0.8"></path>
            <path d="M526.179648,8.39858175 C533.284709,8.40373317 539.397053,13.4263786 540.779491,20.3956524 C542.161929,27.3649261 538.429552,34.3403886 531.864397,37.0571254 C525.299243,39.7738622 517.729233,37.4754583 513.782797,31.5671963 C509.836362,25.6589342 510.612299,17.7858385 515.636188,12.7616513 C518.427254,9.9580407 522.223622,8.38705986 526.179648,8.39858175 L526.179648,8.39858175 Z M526.179648,6.07885454 C519.209483,6.07885454 512.925751,10.2778868 510.258911,16.7176987 C507.592072,23.1575107 509.067395,30.5696999 513.996853,35.497544 C518.926312,40.4253881 526.338984,41.8982826 532.777922,39.2293337 C539.21686,36.5603848 543.41383,30.2752774 543.411547,23.3051121 C543.413045,18.734988 541.597848,14.3516964 538.365753,11.1206599 C535.133658,7.88962342 530.749772,6.07586218 526.179648,6.07885454 L526.179648,6.07885454 Z" id="Shape" fill="#4D7CFE" fill-rule="nonzero" opacity="0.5"></path>
            <path d="M414.553298,54.0492835 C423.50877,54.0378655 431.22461,60.3555291 432.980306,69.1372228 C434.736003,77.9189165 430.042321,86.7175764 421.770832,90.1502266 C413.499343,93.5828769 403.95494,90.6929918 398.976841,83.2485886 C393.998741,75.8041854 394.974118,65.8796852 401.306241,59.5468473 C404.820116,56.015797 409.600007,54.0363692 414.581519,54.0492835 L414.553298,54.0492835 Z M414.581519,51.1312427 C402.60199,51.1312427 392.890663,60.8425963 392.890663,72.8221255 C392.890663,84.8016546 402.60199,94.5129818 414.581519,94.5129818 C426.561048,94.5129818 436.272376,84.8016546 436.272376,72.8221255 C436.273881,67.0639993 433.985209,61.5416912 429.910953,57.4727289 C425.836696,53.4037665 420.311417,51.1222766 414.553298,51.1312427 L414.581519,51.1312427 Z" id="Shape" fill="#4D7CFE" fill-rule="nonzero" opacity="0.8"></path>
            <path d="M298.767134,88.4678599 C310.597391,88.475917 320.775066,96.8384922 323.077229,108.44259 C325.379393,120.046687 319.16504,131.661314 308.23381,136.184945 C297.30258,140.708576 284.698115,136.881672 278.127156,127.044115 C271.556197,117.206558 272.848333,104.097472 281.213514,95.73214 C285.859083,91.0625947 292.180366,88.4466811 298.767134,88.4678599 L298.767134,88.4678599 Z M298.767134,84.6073208 C282.92847,84.6073208 270.088695,97.4470959 270.088695,113.28576 C270.088695,129.124425 282.92847,141.964199 298.767134,141.964199 C314.605799,141.964199 327.445574,129.124425 327.445574,113.28576 C327.447071,105.679306 324.426082,98.3839632 319.047507,93.005388 C313.668931,87.6268127 306.373588,84.6058239 298.767134,84.6073208 L298.767134,84.6073208 Z" id="Shape" fill="#4D7CFE" fill-rule="nonzero"></path>
            <rect id="Rectangle" fill="#F3F5F7" x="102.454443" y="108.087405" width="163.231737" height="163.231737"></rect>
            <rect id="Rectangle" fill="#F3F5F7" x="332.937429" y="108.087405" width="163.231737" height="163.231737"></rect>
            <rect id="Rectangle" fill="#000000" opacity="0.1" x="14.6355427" y="95.6982745" width="54.4444444" height="6.05063699"></rect>
            <rect id="Rectangle" fill="#000000" opacity="0.1" x="479.304144" y="95.6982745" width="54.4444444" height="6.05063699"></rect>
            <path d="M395.769231,349.046122 C395.769231,349.046122 409.913724,323.991292 431.215127,316.772295 C440.168321,313.801433 447.916192,308.006373 453.295436,300.257217 C455.818784,296.551882 457.998968,292.624151 459.808902,288.522819" id="Path" stroke="#535461" stroke-width="2.56410256"></path>
            <path d="M473.202709,283.911466 C470.775681,286.265119 459.470247,288.703435 459.470247,288.703435 C459.470247,288.703435 462.247218,277.47702 464.674246,275.117723 C467.102571,272.762653 470.980279,272.822038 473.335349,275.250363 C475.690419,277.678688 475.631034,281.556396 473.202709,283.911466 L473.202709,283.911466 Z" id="Path" fill="#4D7CFE"></path>
            <path d="M466.807773,304.219481 C463.488953,304.879858 452.697146,300.782132 452.697146,300.782132 C452.697146,300.782132 461.124012,292.880181 464.442832,292.208515 C467.721101,291.635511 470.85693,293.785424 471.504288,297.049825 C472.151645,300.314226 470.073552,303.498104 466.824706,304.219481 L466.807773,304.219481 Z" id="Path" fill="#4D7CFE"></path>
            <path d="M443.525238,326.203838 C440.330592,325.074988 433.066441,316.100629 433.066441,316.100629 C433.066441,316.100629 444.354943,313.521206 447.532656,314.627479 C449.600573,315.343336 451.129503,317.108035 451.543512,319.256832 C451.957521,321.405629 451.193711,323.612071 449.539803,325.045011 C447.885894,326.477952 445.593155,326.919694 443.525238,326.203838 Z" id="Path" fill="#4D7CFE"></path>
            <path d="M422.189969,338.863893 C418.848573,338.299468 410.167715,330.674085 410.167715,330.674085 C410.167715,330.674085 420.846638,326.232059 424.18239,326.779552 C426.357826,327.117409 428.18451,328.596949 428.966849,330.654767 C429.749187,332.712585 429.366656,335.031976 427.965233,336.729725 C426.563691,338.427473 424.358721,339.242288 422.189969,338.863893 L422.189969,338.863893 Z" id="Path" fill="#4D7CFE"></path>
            <path d="M443.254314,292.010966 C443.254314,295.397517 449.372682,305.20158 449.372682,305.20158 C449.372682,305.20158 455.49105,295.397517 455.49105,292.01661 C455.49105,288.634412 452.749236,285.892598 449.367038,285.892598 C445.984839,285.892598 443.243025,288.634412 443.243025,292.01661 L443.254314,292.010966 Z" id="Path" fill="#4D7CFE"></path>
            <path d="M418.459119,307.148847 C419.46944,310.377358 428.246251,317.906789 428.246251,317.906789 C428.246251,317.906789 431.158684,306.719884 430.148363,303.491372 C429.495018,301.40329 427.777324,299.822378 425.642319,299.34415 C423.507315,298.865922 421.279357,299.563033 419.797697,301.172887 C418.316037,302.782742 417.805774,305.060765 418.459119,307.148847 Z" id="Path" fill="#4D7CFE"></path>
            <path d="M396.37881,325.148363 C396.83035,328.501048 404.201742,337.402032 404.201742,337.402032 C404.201742,337.402032 408.965489,326.86986 408.519594,323.517175 C408.22821,321.348433 406.80195,319.499884 404.778072,318.667858 C402.754195,317.835833 400.440174,318.146736 398.70768,319.483452 C396.975187,320.820169 396.087426,322.979621 396.37881,325.148363 Z" id="Path" fill="#4D7CFE"></path>
            <path d="M473.202709,283.911466 C470.775681,286.265119 459.470247,288.703435 459.470247,288.703435 C459.470247,288.703435 462.247218,277.47702 464.674246,275.117723 C467.102571,272.762653 470.980279,272.822038 473.335349,275.250363 C475.690419,277.678688 475.631034,281.556396 473.202709,283.911466 L473.202709,283.911466 Z" id="Path" fill="#000000" opacity="0.25"></path>
            <path d="M466.807773,304.219481 C463.488953,304.879858 452.697146,300.782132 452.697146,300.782132 C452.697146,300.782132 461.124012,292.880181 464.442832,292.208515 C467.721101,291.635511 470.85693,293.785424 471.504288,297.049825 C472.151645,300.314226 470.073552,303.498104 466.824706,304.219481 L466.807773,304.219481 Z" id="Path" fill="#000000" opacity="0.25"></path>
            <path d="M443.525238,326.203838 C440.330592,325.074988 433.066441,316.100629 433.066441,316.100629 C433.066441,316.100629 444.354943,313.521206 447.532656,314.627479 C449.600573,315.343336 451.129503,317.108035 451.543512,319.256832 C451.957521,321.405629 451.193711,323.612071 449.539803,325.045011 C447.885894,326.477952 445.593155,326.919694 443.525238,326.203838 Z" id="Path" fill="#000000" opacity="0.25"></path>
            <path d="M422.189969,338.863893 C418.848573,338.299468 410.167715,330.674085 410.167715,330.674085 C410.167715,330.674085 420.846638,326.232059 424.18239,326.779552 C426.357826,327.117409 428.18451,328.596949 428.966849,330.654767 C429.749187,332.712585 429.366656,335.031976 427.965233,336.729725 C426.563691,338.427473 424.358721,339.242288 422.189969,338.863893 L422.189969,338.863893 Z" id="Path" fill="#000000" opacity="0.25"></path>
            <path d="M443.254314,292.010966 C443.254314,295.397517 449.372682,305.20158 449.372682,305.20158 C449.372682,305.20158 455.49105,295.397517 455.49105,292.01661 C455.49105,288.634412 452.749236,285.892598 449.367038,285.892598 C445.984839,285.892598 443.243025,288.634412 443.243025,292.01661 L443.254314,292.010966 Z" id="Path" fill="#000000" opacity="0.25"></path>
            <path d="M418.459119,307.148847 C419.46944,310.377358 428.246251,317.906789 428.246251,317.906789 C428.246251,317.906789 431.158684,306.719884 430.148363,303.491372 C429.495018,301.40329 427.777324,299.822378 425.642319,299.34415 C423.507315,298.865922 421.279357,299.563033 419.797697,301.172887 C418.316037,302.782742 417.805774,305.060765 418.459119,307.148847 Z" id="Path" fill="#000000" opacity="0.25"></path>
            <path d="M396.37881,325.148363 C396.83035,328.501048 404.201742,337.402032 404.201742,337.402032 C404.201742,337.402032 408.965489,326.86986 408.519594,323.517175 C408.22821,321.348433 406.80195,319.499884 404.778072,318.667858 C402.754195,317.835833 400.440174,318.146736 398.70768,319.483452 C396.975187,320.820169 396.087426,322.979621 396.37881,325.148363 Z" id="Path" fill="#000000" opacity="0.25"></path>
            <path d="M396.582003,348.549428 C396.582003,348.549428 399.364619,319.916143 415.907918,304.682309 C422.889788,298.332068 427.624937,289.889601 429.403322,280.620868 C430.209919,276.215337 430.612333,271.745326 430.605632,267.26657" id="Path" stroke="#535461" stroke-width="2.56410256"></path>
            <path d="M440.979681,257.620545 C439.715368,260.758749 430.368489,267.565715 430.368489,267.565715 C430.368489,267.565715 428.353491,256.181261 429.617804,253.043058 C430.435493,251.013454 432.27385,249.574254 434.440383,249.267592 C436.606916,248.96093 438.772478,249.833394 440.121322,251.556336 C441.470165,253.279278 441.79737,255.590941 440.979681,257.620545 L440.979681,257.620545 Z" id="Path" fill="#4D7CFE"></path>
            <path d="M443.361555,278.780842 C440.595872,280.728108 429.053378,281.365909 429.053378,281.365909 C429.053378,281.365909 433.568779,270.709563 436.317529,268.767941 C439.081157,266.946321 442.792091,267.650304 444.696582,270.357488 C446.601072,273.064673 446.009812,276.795228 443.361555,278.780842 Z" id="Path" fill="#4D7CFE"></path>
            <path d="M430.983712,308.311563 C427.597162,308.593775 417.330269,303.316401 417.330269,303.316401 C417.330269,303.316401 426.586841,296.390905 429.956459,296.108692 C432.159176,295.883185 434.31207,296.864274 435.587047,298.674593 C436.862024,300.484911 437.060486,302.842474 436.106098,304.840463 C435.15171,306.838452 433.19313,308.165651 430.983712,308.311563 L430.983712,308.311563 Z" id="Path" fill="#4D7CFE"></path>
            <path d="M416.590872,328.546202 C413.311563,329.39284 402.282696,325.92727 402.282696,325.92727 C402.282696,325.92727 410.24109,317.539913 413.514756,316.687631 C416.758475,315.914553 420.024523,317.878781 420.862175,321.106427 C421.699826,324.334074 419.801161,327.638668 416.590872,328.540558 L416.590872,328.546202 Z" id="Path" fill="#4D7CFE"></path>
            <path d="M416.878729,277.166586 C418.250282,280.259636 427.817288,286.761813 427.817288,286.761813 C427.817288,286.761813 429.448476,275.315272 428.082567,272.222222 C426.712543,269.128368 423.093854,267.730927 420,269.100951 C416.906146,270.470976 415.508705,274.089664 416.878729,277.183519 L416.878729,277.166586 Z" id="Path" fill="#4D7CFE"></path>
            <path d="M400.341074,301.041767 C402.598774,303.58168 413.650218,306.911788 413.650218,306.911788 C413.650218,306.911788 411.776326,295.499113 409.546847,292.9592 C407.314908,290.417096 403.444781,290.165658 400.902677,292.397597 C398.360573,294.629537 398.109135,298.499663 400.341074,301.041767 L400.341074,301.041767 Z" id="Path" fill="#4D7CFE"></path>
            <path d="M387.455249,326.452185 C389.2219,329.336397 399.573456,334.489598 399.573456,334.489598 C399.573456,334.489598 399.663764,322.924528 397.880181,320.040316 C396.109592,317.158434 392.338019,316.257552 389.456136,318.028141 C386.574254,319.798729 385.673372,323.570303 387.443961,326.452185 L387.455249,326.452185 Z" id="Path" fill="#4D7CFE"></path>
            <rect id="Rectangle" fill="#000000" opacity="0.1" x="123.524432" y="142.929366" width="54.4444444" height="6.05063699"></rect>
            <rect id="Rectangle" fill="#000000" opacity="0.1" x="223.850992" y="196.115143" width="32.5052411" height="6.05063699"></rect>
            <rect id="Rectangle" fill="#000000" opacity="0.1" x="223.850992" y="236.719884" width="48.1341719" height="6.05063699"></rect>
            <rect id="Rectangle" fill="#000000" opacity="0.1" x="123.524432" y="164.253346" width="54.4444444" height="6.05063699"></rect>
            <rect id="Rectangle" fill="#000000" opacity="0.1" x="368.524432" y="142.929366" width="54.4444444" height="6.05063699"></rect>
            <rect id="Rectangle" fill="#000000" opacity="0.1" x="368.524432" y="164.253346" width="54.4444444" height="6.05063699"></rect>
            <path d="M291.051443,121.718271 L292.575391,119.720206 C294.041494,121.156752 296.009047,121.966444 298.061603,121.977907 C300.635381,121.977907 302.543138,120.719239 302.543138,118.681664 C302.543138,116.469118 300.714401,115.012901 295.645864,115.012901 L295.645864,112.715691 C300.161264,112.715691 301.85454,111.231253 301.85454,109.272698 C301.85454,107.500403 300.336236,106.39413 298.08418,106.39413 C296.329653,106.445871 294.65331,107.131648 293.365586,108.324464 L291.745686,106.39413 C293.525356,104.80303 295.8213,103.91072 298.208353,103.882438 C302.108531,103.882438 304.981455,105.75633 304.981455,109.041284 C304.981455,111.355427 303.288179,112.868086 300.849863,113.703435 L300.849863,113.827608 C303.463151,114.392034 305.65312,116.124819 305.65312,118.828415 C305.65312,122.395581 302.26657,124.534752 298.27044,124.534752 C294.872601,124.529108 292.541526,123.236575 291.051443,121.718271 Z" id="Path" fill="#4D7CFE"></path>
            <g id="Group" opacity="0.8" transform="translate(406.386067, 63.215610)" fill="#4D7CFE">
                <path d="M9.96774714,6.49088857 C9.96774714,5.40719239 10.0636994,4.02435091 10.1201419,2.94065473 L9.97903564,2.94065473 C9.35816804,3.90017739 8.65263667,4.8540558 8.02048057,5.8079342 L3.50507983,11.5989357 L15.4934688,11.5989357 L15.4934688,13.9300113 L0.412030318,13.9300113 L0.412030318,11.9545235 L9.41461055,0.101596517 L12.7277858,0.101596517 L12.7277858,18.9477504 L9.96774714,18.9477504 L9.96774714,6.49088857 Z" id="Path"></path>
            </g>
            <g id="Group" opacity="0.5" transform="translate(519.835510, 16.932753)" fill="#4D7CFE">
                <path d="M0.479761329,12.349621 L1.50137075,10.955491 C2.48901867,11.923626 3.81534975,12.4683329 5.1983551,12.4737945 C7.0158039,12.4737945 8.44379939,11.3900984 8.44379939,9.61215933 C8.44379939,7.83422029 7.18513143,6.87469763 5.31688437,6.87469763 C4.37078611,6.86683205 3.44362795,7.13987228 2.65279794,7.65924851 L1.59167876,6.97629415 L2.02064183,0.310433801 L9.92259313,0.310433801 L9.92259313,2.14481535 L3.88324464,2.14481535 L3.55023383,5.7966457 C4.28562043,5.46273953 5.08498316,5.29323611 5.89259797,5.29995162 C8.48330914,5.29995162 10.594259,6.63199484 10.594259,9.57829382 C10.594259,12.5245928 8.12207708,14.2460893 5.4523464,14.2460893 C3.6085998,14.3001985 1.81922348,13.6177576 0.479761329,12.349621 Z" id="Path"></path>
            </g>
            <rect id="Rectangle" fill="#4D7CFE" opacity="0.1" x="195.945815" y="159.912917" width="201.776326" height="201.776326"></rect>
            <rect id="Rectangle" fill="#FFFFFF" x="202.718916" y="150.317691" width="201.776326" height="201.776326"></rect>
            <rect id="Rectangle" fill="#4D7CFE" opacity="0.5" x="223.850992" y="172.668924" width="159.506531" height="6.05063699"></rect>
            <rect id="Rectangle" fill="#000000" opacity="0.1" x="223.850992" y="216.417513" width="101.568295" height="6.05063699"></rect>
            <rect id="Rectangle" fill="#000000" opacity="0.1" x="223.850992" y="257.027899" width="98.5486212" height="6.05063699"></rect>
            <rect id="Rectangle" fill="#000000" opacity="0.1" x="223.850992" y="277.330269" width="134.338816" height="6.05063699"></rect>
            <path d="M354.188034,216.953717 L353.493791,216.236897 C353.46305,216.20839 353.422827,216.192301 353.380906,216.191743 C353.340594,216.192018 353.302033,216.208254 353.273666,216.236897 L348.459119,221.090953 L346.703757,219.335591 C346.672478,219.307947 346.632588,219.291991 346.590872,219.290437 C346.550802,219.291846 346.512642,219.307913 346.483632,219.335591 L345.7781,220.041122 C345.747762,220.070848 345.730666,220.111534 345.730666,220.154007 C345.730666,220.196481 345.747762,220.237167 345.7781,220.266892 L347.990647,222.473795 C348.110967,222.604676 348.276264,222.685309 348.453475,222.699565 C348.627753,222.684901 348.790516,222.606534 348.91066,222.479439 L348.91066,222.479439 L354.188034,217.179487 C354.240864,217.113502 354.240864,217.019702 354.188034,216.953717 L354.188034,216.953717 Z" id="Path" fill="#3ACC6C" opacity="0.5"></path>
            <path d="M349.983067,212.325408 C353.376419,212.322982 356.298802,214.718264 356.962572,218.046064 C357.626341,221.373863 355.846569,224.707046 352.711956,226.006678 C349.577343,227.30631 345.961201,226.210309 344.075554,223.389108 C342.189906,220.567907 342.5601,216.807501 344.959684,214.40816 C346.288576,213.07057 348.097576,212.320547 349.983067,212.325408 L349.983067,212.325408 Z M349.983067,211.2248 C346.660441,211.22252 343.663819,213.222566 342.39125,216.291836 C341.118682,219.361105 341.82094,222.894767 344.170392,225.244219 C346.519844,227.593671 350.053505,228.295929 353.122775,227.02336 C356.192045,225.750791 358.192091,222.754169 358.18981,219.431543 C358.18358,214.903495 354.51112,211.236087 349.983067,211.236091 L349.983067,211.2248 Z" id="Shape" fill="#3ACC6C" fill-rule="nonzero" opacity="0.5"></path>
            <path d="M354.188034,257.558458 L353.493791,256.847283 C353.464461,256.816619 353.423293,256.800152 353.380906,256.802129 C353.340186,256.800279 353.300798,256.816863 353.273666,256.847283 L348.459119,261.695694 L346.703757,259.945976 C346.674602,259.914398 346.633843,259.896057 346.590872,259.895178 C346.549568,259.896259 346.510633,259.914702 346.483632,259.945976 L345.7781,260.645864 C345.747762,260.675589 345.730666,260.716275 345.730666,260.758749 C345.730666,260.801222 345.747762,260.841908 345.7781,260.871634 L347.990647,263.08418 C348.110967,263.215062 348.276264,263.295694 348.453475,263.30995 C348.627065,263.2928 348.789001,263.214831 348.91066,263.089824 L348.91066,263.089824 L354.188034,257.784228 C354.240864,257.718243 354.240864,257.624443 354.188034,257.558458 L354.188034,257.558458 Z" id="Path" fill="#3ACC6C" opacity="0.5"></path>
            <path d="M349.983067,252.964014 C353.376419,252.961589 356.298802,255.356871 356.962572,258.68467 C357.626341,262.01247 355.846569,265.345653 352.711956,266.645285 C349.577343,267.944916 345.961201,266.848916 344.075554,264.027715 C342.189906,261.206514 342.5601,257.446108 344.959684,255.046767 C346.288576,253.709177 348.097576,252.959153 349.983067,252.964014 L349.983067,252.964014 Z M349.983067,251.835186 C346.660955,251.832905 343.664689,253.83234 342.39179,256.900916 C341.11889,259.969493 341.820113,263.502712 344.168394,265.852608 C346.516675,268.202504 350.049411,268.906156 353.118862,267.635366 C356.188313,266.364576 358.18981,263.369686 358.18981,260.047573 C358.191306,257.870032 357.327331,255.781165 355.788106,254.240882 C354.248881,252.700598 352.160609,251.835186 349.983067,251.835186 L349.983067,251.835186 Z" id="Shape" fill="#3ACC6C" fill-rule="nonzero" opacity="0.5"></path>
            <ellipse id="Oval" fill="#4D7CFE" opacity="0.1" cx="289.273504" cy="441.594904" rx="40.3055959" ry="6.76181261"></ellipse>
            <path d="M73.8888889,391.355427 C73.8888889,391.355427 75.9885502,394.104177 72.9180777,398.258345 C69.8476052,402.412514 67.3076923,405.91195 68.334946,408.502661 C68.334946,408.502661 72.968876,400.792614 76.7448799,400.685373 C80.5208837,400.578133 78.0374133,395.995001 73.8888889,391.355427 Z" id="Path" fill="#4D7CFE"></path>
            <path d="M73.8888889,391.355427 C74.0717416,391.621698 74.2161497,391.912415 74.317852,392.218997 C77.9979036,396.548137 79.9621029,400.583777 76.4231576,400.685373 C73.126915,400.781326 69.1702951,406.673924 68.222061,408.164006 C68.2520264,408.279302 68.2897404,408.392444 68.334946,408.502661 C68.334946,408.502661 72.968876,400.792614 76.7448799,400.685373 C80.5208837,400.578133 78.0374133,395.995001 73.8888889,391.355427 Z" id="Path" fill="#000000" opacity="0.1"></path>
            <path d="M77.7947105,394.860506 C77.7947105,395.831318 77.6874698,396.615868 77.5520077,396.615868 C77.4165457,396.615868 77.309305,395.831318 77.309305,394.860506 C77.309305,393.889695 77.444767,394.34688 77.580229,394.34688 C77.715691,394.34688 77.7947105,393.895339 77.7947105,394.860506 Z" id="Path" fill="#FFD037"></path>
            <path d="M79.1380423,396.017578 C78.2857604,396.480406 77.5463635,396.762619 77.4842767,396.64409 C77.42219,396.52556 78.0487018,396.079665 78.906628,395.588615 C79.7645541,395.097565 79.4202548,395.464441 79.4710531,395.588615 C79.5218513,395.712788 79.9846799,395.554749 79.1380423,396.017578 Z" id="Path" fill="#FFD037"></path>
            <path d="M62.7810031,391.355427 C62.7810031,391.355427 60.6756975,394.104177 63.7518142,398.258345 C66.827931,402.412514 69.3565554,405.91195 68.334946,408.502661 C68.334946,408.502661 63.6953717,400.792614 59.9250121,400.685373 C56.1546525,400.578133 58.6268344,395.995001 62.7810031,391.355427 Z" id="Path" fill="#4D7CFE"></path>
            <path d="M62.7810031,391.355427 C62.5981504,391.621698 62.4537422,391.912415 62.35204,392.218997 C58.6663441,396.548137 56.7077891,400.583777 60.2467344,400.685373 C63.5429769,400.781326 67.4995968,406.673924 68.447831,408.164006 C68.4139655,408.276891 68.3801,408.389776 68.334946,408.502661 C68.334946,408.502661 63.6953717,400.792614 59.9250121,400.685373 C56.1546525,400.578133 58.6268344,395.995001 62.7810031,391.355427 Z" id="Path" fill="#000000" opacity="0.1"></path>
            <path d="M58.8695372,394.860506 C58.8695372,395.831318 58.9767779,396.615868 59.11224,396.615868 C59.247702,396.615868 59.3549428,395.831318 59.3549428,394.860506 C59.3549428,393.889695 59.2194807,394.34688 59.0840187,394.34688 C58.9485567,394.34688 58.8695372,393.895339 58.8695372,394.860506 Z" id="Path" fill="#FFD037"></path>
            <path d="M57.5318497,396.017578 C58.3784873,396.480406 59.1178842,396.762619 59.1856152,396.64409 C59.2533462,396.52556 58.6211901,396.079665 57.763264,395.588615 C56.9053378,395.097565 57.2496372,395.464441 57.1988389,395.588615 C57.1480406,395.712788 56.6795678,395.554749 57.5318497,396.017578 Z" id="Path" fill="#FFD037"></path>
            <ellipse id="Oval" fill="#4D7CFE" opacity="0.1" cx="68.334946" cy="426.163522" rx="21.9843574" ry="3.37526205"></ellipse>
            <path d="M79.6516691,404.794388 L79.5444283,405.657958 L79.3976778,406.865828 L79.335591,407.373811 L79.1888405,408.587325 L79.1267537,409.095307 L78.974359,410.303177 L77.2810837,424.097726 C77.1343332,425.328173 75.1193356,426.287696 72.6923077,426.287696 L63.9606515,426.287696 C61.5336236,426.287696 59.5242703,425.328173 59.3775198,424.097726 L57.6842445,410.303177 L57.537494,409.095307 L57.4754072,408.587325 L57.3286567,407.373811 L57.2665699,406.865828 L57.1198194,405.657958 L57.0069344,404.794388 C56.9222706,404.100145 58.011611,403.513143 59.383164,403.513143 L77.2641509,403.513143 C78.6469924,403.513143 79.7363328,404.100145 79.6516691,404.794388 Z" id="Path" fill="#65617D"></path>
            <polygon id="Path" fill="#9D9CB5" points="79.5444283 405.652314 79.3976778 406.865828 57.2722142 406.865828 57.1198194 405.652314"></polygon>
            <polygon id="Path" fill="#9D9CB5" points="79.335591 407.373811 79.1888405 408.587325 57.4810514 408.587325 57.3343009 407.373811"></polygon>
            <polygon id="Path" fill="#9D9CB5" points="79.1267537 409.089663 78.974359 410.303177 57.6898887 410.303177 57.5431382 409.089663"></polygon>
            <path d="M333.484922,260.645864 C333.106757,259.872601 330.098371,249.921787 330.098371,249.921787 L324.301726,235.207225 C324.301726,235.207225 320.785357,215.8418 315.536204,220.673279 C310.28705,225.504757 318.358329,237.098049 318.358329,237.098049 C318.358329,237.098049 321.671505,245.564425 321.502177,247.2577 C321.33285,248.950976 323.347847,255.159652 323.347847,255.159652 L322.693114,258.726818 C321.840832,258.670376 321.287696,258.670376 321.287696,258.670376 C321.287696,258.670376 320.768424,259.415417 320.27173,259.466215 C320.187409,259.477693 320.101553,259.465985 320.023383,259.43235 C319.458958,259.178358 317.590711,259.229157 316.636833,259.229157 C315.750781,259.109694 314.892823,258.834536 314.102564,258.416384 C313.775198,257.761651 311.923883,257.372198 310.281406,257.152072 C309.034027,254.047734 307.278665,251.02806 307.035962,247.78826 C306.916514,246.906379 307.091086,246.009715 307.532656,245.237059 C307.642157,245.071526 307.766871,244.916578 307.905177,244.77423 C308.362361,244.311401 308.921142,243.905015 309.429124,243.476052 C309.683116,243.261571 309.91453,243.041445 310.134656,242.815675 C314.441219,238.638929 313.758265,232.170618 309.852443,227.694727 C305.337042,222.518949 284.972585,211.382841 278.809063,220.921626 C277.951137,222.253669 277.922916,223.794549 277.680213,225.273343 C277.065962,228.890133 275.369563,232.235698 272.814869,234.86857 C270.77165,237.041606 268.090631,239.045315 266.916626,241.506209 L266.877117,241.415901 C266.59728,241.949721 266.392167,242.519481 266.267537,243.109176 C265.674891,246.106273 267.695533,248.990485 268.756652,251.908563 C269.117736,252.89974 269.378673,253.924579 269.535559,254.967747 L269.60329,254.324303 C269.863222,255.814441 269.952224,257.329379 269.86857,258.839703 C262.474601,260.352363 262.468957,273.097081 262.468957,273.097081 C262.468957,273.097081 261.560232,278.176907 261.712627,279.988711 C261.865022,281.800516 261.865022,285.76278 261.865022,286.727947 C261.865022,287.693114 260.950653,293.619577 260.849057,294.330753 C260.719239,295.115304 259.330753,298.874375 262.683438,299.721013 C262.914852,299.7831 263.163199,299.833898 263.417191,299.879052 C263.558297,302.921303 263.823577,309.304951 263.592163,310.716014 C263.592163,310.716014 264.811321,319.283986 265.821642,321.44009 C266.470489,322.714937 267.225734,323.932769 268.079342,325.080632 C268.007749,325.60094 267.833136,326.101751 267.565715,326.553782 C267.052088,327.304467 267.317368,327.91969 268.180939,328.18497 C268.154599,328.444606 268.120733,328.738107 268.079342,329.065473 C267.712466,332.373004 267.159329,338.937268 268.079342,342.267376 C269.371876,346.827931 269.445251,348.346234 269.445251,348.346234 C269.444556,349.088351 269.626783,349.819199 269.97581,350.474117 C270.540235,351.236091 271.499758,358.302693 271.499758,359.442832 C271.499758,360.58297 274.084825,370.844219 273.322851,373.276891 C272.560877,375.709563 273.170456,379.129979 273.170456,379.129979 C273.170456,379.129979 272.713272,385.135462 272.182712,386.427995 C271.652153,387.720529 271.420739,408.547815 272.256088,413.943719 C273.091437,419.339623 273.627641,423.826802 273.627641,423.826802 C273.627641,423.826802 273.063216,428.765522 273.548621,429.471053 C274.034027,430.176584 274.841155,434.263022 274.231576,434.488792 C273.621996,434.714562 273.322851,436.390905 273.322851,436.390905 C273.643975,436.881007 273.990634,437.353895 274.361393,437.807612 C274.125713,437.724879 273.895691,437.626836 273.672795,437.514111 C273.915498,437.85841 274.27673,438.332527 274.716981,438.851798 L274.304951,444.315433 C274.268311,444.757162 274.553766,445.161557 274.982261,445.274956 C277.701526,446.020881 280.610147,445.196989 282.534269,443.135785 C286.33285,439.258184 287.614095,439.794388 288.313982,437.435091 C288.381713,437.1811 288.449444,436.938397 288.500242,436.701338 C288.71377,435.773348 288.374047,434.805333 287.627423,434.214306 C286.880799,433.623279 285.860651,433.514822 285.006451,433.935656 C285.249153,432.24238 285.441058,430.385422 285.254798,429.318658 C284.876633,427.1174 284.950008,421.337687 284.950008,421.337687 L284.419448,393.680858 C284.419448,393.680858 285.407192,388.211579 286.547331,386.083696 C287.68747,383.955814 287.535075,376.48847 287.535075,376.48847 L288.827608,352.009353 L290.114498,340.156426 C290.114498,340.156426 291.328012,336.053056 292.846315,340.613611 C292.846315,340.613611 292.010966,349.808095 292.394775,352.014998 C292.778584,354.2219 293.303499,364.934688 292.925335,367.293985 C292.54717,369.653282 290.870827,382.572972 291.937591,385.840993 C293.004354,389.109015 294.138849,393.05999 293.913079,394.352524 C293.687308,395.645057 292.925335,423.702629 292.925335,423.702629 C292.925335,423.702629 294.974198,429.098532 293.455894,430.84825 C291.937591,432.597968 293.382519,439.591195 293.382519,439.591195 C293.382519,439.591195 293.563135,439.721013 293.879213,439.907273 L293.834059,440.471698 L293.359942,446.759394 C293.325632,447.200485 293.610139,447.603536 294.037252,447.718916 C296.756506,448.462213 299.66377,447.638706 301.58926,445.579745 C305.387841,441.702145 306.669086,442.232704 307.368973,439.879052 C307.436704,439.62506 307.504435,439.376713 307.560877,439.139655 C307.795999,438.107834 307.34829,437.040794 306.447312,436.485659 C305.546334,435.930523 304.391936,436.01043 303.576036,436.684406 C303.550513,436.711814 303.52213,436.736413 303.491372,436.757781 C303.39542,436.842445 303.293824,436.91582 303.192227,436.989195 L303.045477,437.085148 C303.423641,435.346718 303.976778,432.383487 303.717142,430.983712 C303.338978,428.929205 304.095307,422.697952 304.095307,422.697952 C304.095307,422.697952 306.302209,415.247541 306.353008,412.284309 C306.403806,409.321077 306.962587,388.578455 306.962587,388.578455 C306.962587,388.578455 306.889211,378.926786 307.194001,376.573133 C307.498791,374.219481 309.925818,353.843735 312.358491,347.787454 C314.226738,343.125302 315.062087,331.244154 314.565393,325.21045 C314.537171,324.90566 314.50895,324.646025 314.480729,324.352524 C317.455249,322.1174 317.771327,318.437349 317.771327,318.437349 C317.771327,318.437349 315.033866,313.165618 312.398,310.936139 C309.762135,308.70666 309.152556,304.857281 309.254153,303.231737 C309.300634,302.23993 308.976748,301.266259 308.345428,300.499919 C308.345428,300.499919 307.12627,296.548944 306.313498,296.142558 C306.246807,296.109391 306.187341,296.063352 306.138526,296.007096 C305.574101,295.408805 306.008708,293.709886 306.008708,293.709886 L306.008708,293.659087 C306.099016,293.26399 306.691663,290.712788 306.499758,290.058055 C306.307854,289.403322 306.601355,286.005483 306.601355,286.005483 C306.601355,286.005483 308.531688,280.231414 308.226899,275.67086 C307.922109,271.110305 312.177875,271.511047 312.177875,271.511047 L325.323335,271.375585 L326.819061,271.375585 C327.449873,270.837298 328.017895,270.229514 328.512337,269.56378 C329.538475,269.756567 330.597903,269.497367 331.419126,268.852604 C334.207386,266.301403 333.863087,261.430414 333.484922,260.645864 Z M272.35204,300.15562 L272.447992,297.841477 L272.961619,298.281729 C273.118384,298.888878 273.118384,299.525894 272.961619,300.133043 C272.800385,300.711228 272.38502,301.184745 271.832769,301.419932 C271.767537,301.452108 271.705217,301.489878 271.646509,301.532817 L271.516691,300.212063 C272.052895,300.178197 272.35204,300.149976 272.35204,300.149976 L272.35204,300.15562 Z" id="Shape" fill="#000000" fill-rule="nonzero" opacity="0.1"></path>
            <path d="M321.66586,265.133043 C321.66586,265.133043 329.150137,269.947589 331.983551,267.390743 C334.816965,264.833898 334.467021,259.900822 334.083212,259.121916 C333.699403,258.343009 330.651508,248.324464 330.651508,248.324464 L324.764554,233.491372 C324.764554,233.491372 321.186099,213.967908 315.846638,218.81632 C310.507176,223.664731 318.725206,235.370908 318.725206,235.370908 C318.725206,235.370908 322.111756,243.91066 321.919852,245.620868 C321.727947,247.331076 323.793743,253.596194 323.793743,253.596194 L321.66586,265.133043 Z" id="Path" fill="url(#linearGradient-1)"></path>
            <path d="M307.707628,439.071924 C307.651185,439.314627 307.589099,439.562974 307.510079,439.816965 C306.815836,442.193195 305.500726,441.656991 301.640058,445.562812 C299.67566,447.643639 296.724435,448.472586 293.963877,447.718916 C293.531387,447.605693 293.241621,447.199545 293.275278,446.753749 L293.760684,440.415256 L293.992098,437.361716 C293.992098,437.361716 300.138687,439.088857 303.271247,436.904532 C303.372843,436.831156 303.47444,436.757781 303.570392,436.673117 L303.6607,436.599742 C304.486779,435.923071 305.650401,435.8427 306.561666,436.399373 C307.472932,436.956046 307.932595,438.028047 307.707628,439.071924 L307.707628,439.071924 Z" id="Path" fill="url(#linearGradient-2)"></path>
            <path d="M288.421222,436.678761 C288.370424,436.921464 288.302693,437.169811 288.229318,437.423803 C287.535075,439.800032 286.219965,439.263828 282.359297,443.16965 C280.393439,445.24808 277.444693,446.0785 274.683116,445.331398 C274.24698,445.219847 273.955621,444.809079 273.994517,444.360587 L274.474278,438.022093 L274.711337,434.968553 C274.711337,434.968553 280.857926,436.695694 283.984841,434.511369 C284.092082,434.437994 284.188034,434.364619 284.289631,434.279955 L284.379939,434.20658 C285.204702,433.526938 286.369727,433.445118 287.281389,434.002811 C288.19305,434.560503 288.65073,435.634983 288.421222,436.678761 L288.421222,436.678761 Z" id="Path" fill="url(#linearGradient-3)"></path>
            <g id="Group" opacity="0.1" transform="translate(273.181745, 437.429447)" fill="url(#linearGradient-4)">
                <path d="M8.87276246,0.203193033 L9.12675375,3.49379132 C5.59345267,6.9932269 1.39412998,1.80051605 0.152394775,0.0733752621 C3.38655056,1.73278503 8.87276246,0.203193033 8.87276246,0.203193033 Z" id="Path"></path>
            </g>
            <g id="Group" opacity="0.1" transform="translate(293.501048, 436.865022)" fill="url(#linearGradient-5)">
                <path d="M9.29608128,2.1053056 L9.7645541,1.80051605 C6.53604257,6.66586035 1.74971779,4.41944848 0.259635543,3.55023383 L0.491049831,0.496694082 C0.491049831,0.496694082 6.63763909,2.22383487 9.77019836,0.0395097565 C9.52185131,1.2304467 9.29608128,2.1053056 9.29608128,2.1053056 Z" id="Path"></path>
            </g>
            <path d="M312.612482,346.935172 C310.1403,353.064828 307.668118,373.604257 307.357684,375.980487 C307.04725,378.356717 307.12627,388.087405 307.12627,388.087405 L306.482825,411.996452 C306.40945,414.987905 304.168682,422.494759 304.168682,422.494759 C304.168682,422.494759 303.39542,428.782454 303.779229,430.84825 C304.163038,432.914046 302.774552,438.360748 302.774552,438.360748 L303.243025,438.055959 C299.376713,443.875181 293.275278,439.506531 293.275278,439.506531 C293.275278,439.506531 291.807773,432.456862 293.348653,430.695856 C294.889534,428.934849 292.81245,423.493791 292.81245,423.493791 C292.81245,423.493791 293.580068,395.216094 293.817126,393.912272 C294.054185,392.60845 292.936623,388.623609 291.807773,385.327367 C290.678923,382.031124 292.422996,369.004193 292.81245,366.627963 C293.201903,364.251734 292.654411,353.448637 292.248025,351.224802 C291.841638,349.000968 292.710853,339.727463 292.710853,339.727463 C291.164328,335.133043 289.928237,339.270279 289.928237,339.270279 L288.692146,351.303822 L287.42219,376.008708 C287.42219,376.008708 287.580229,383.515562 286.417513,385.660377 C285.254798,387.805193 284.255765,393.32527 284.255765,393.32527 L284.82019,421.219158 C284.82019,421.219158 284.741171,427.044025 285.130624,429.26786 C285.520077,431.491695 284.278342,437.237542 284.278342,437.237542 C279.954846,447.35204 272.98984,436.396549 272.98984,436.396549 C272.98984,436.396549 273.29463,434.703274 273.915498,434.477504 C274.536365,434.251734 273.684083,430.108853 273.221255,429.397678 C272.758426,428.686502 273.29463,423.753427 273.29463,423.753427 C273.29463,423.753427 272.758426,419.238026 271.906144,413.78568 C271.053862,408.333333 271.290921,387.348008 271.827125,386.044186 C272.363328,384.740364 272.831801,378.70666 272.831801,378.70666 C272.831801,378.70666 272.216578,375.258023 272.98984,372.802774 C273.763103,370.347525 271.132882,360.007257 271.132882,358.85583 C271.132882,357.704403 270.128205,350.581358 269.586357,349.825028 C269.222832,349.168131 269.028839,348.430957 269.021932,347.680213 C269.021932,347.680213 268.942912,346.144977 267.627802,341.550556 C266.668279,338.164006 267.232704,331.571521 267.627802,328.241413 C267.763264,327.005322 267.876149,326.220771 267.876149,326.220771 C267.876149,326.220771 312.223029,319.092082 314.000968,320.706338 C314.418642,321.078858 314.69521,322.399613 314.853249,324.239639 C315.355588,330.25641 314.503306,342.239155 312.612482,346.935172 Z" id="Path" fill="url(#linearGradient-6)"></path>
            <g id="Group" opacity="0.1" transform="translate(295.758749, 380.986938)" fill="url(#linearGradient-7)">
                <path d="M0.0846637639,0.461538462 C0.293501048,0.461538462 5.1644896,0.929487179 6.98758265,0.519230769 C8.8106757,0.108974359 0.0846637639,0.461538462 0.0846637639,0.461538462 Z" id="Path"></path>
            </g>
            <g id="Group" opacity="0.1" transform="translate(295.758749, 383.809063)" fill="url(#linearGradient-8)">
                <path d="M0.445895823,0.445895823 C0.445895823,0.445895823 7.21899694,1.61990002 7.55765199,1.01032092 C7.89630705,0.400741816 0.445895823,0.445895823 0.445895823,0.445895823 Z" id="Path"></path>
            </g>
            <g id="Group" opacity="0.1" transform="translate(275.439445, 382.680213)" fill="url(#linearGradient-9)">
                <path d="M0.112885019,0.349943557 C0.112885019,0.349943557 3.61232059,0.502338333 5.52007741,1.37155298 C7.42783422,2.24076762 0.112885019,0.349943557 0.112885019,0.349943557 Z" id="Path"></path>
            </g>
            <path d="M262.830189,297.096436 C262.830189,297.096436 263.394614,307.775359 263.089824,309.660539 C263.089824,309.660539 264.325915,318.296243 265.347525,320.491856 C266.269253,322.243208 267.355993,323.902612 268.592969,325.447508 L271.629576,304.247702 L270.924045,296.989195 L262.830189,297.096436 Z" id="Path" fill="url(#linearGradient-10)"></path>
            <ellipse id="Oval" fill="url(#linearGradient-11)" cx="294.76536" cy="236.652153" rx="11.898081" ry="11.8021287"></ellipse>
            <path d="M288.584906,242.17223 C288.584906,242.17223 284.876633,249.374294 281.16836,252.749557 C277.460087,256.124819 303.417997,259.951621 304.03322,259.951621 C304.648444,259.951621 299.39929,244.627479 300.324948,242.787454 C301.250605,240.947428 288.584906,242.17223 288.584906,242.17223 Z" id="Path" fill="url(#linearGradient-12)"></path>
            <g id="Group" opacity="0.1" transform="translate(267.537494, 320.029028)" fill="url(#linearGradient-13)">
                <path d="M47.3157555,4.15416868 C46.7333824,4.59656682 46.0910263,4.95385363 45.4079987,5.21528786 C40.6724722,7.05531366 35.5192711,9.61215933 32.0141913,8.60183841 C28.5091114,7.5915175 21.09821,8.60183841 21.09821,8.60183841 C21.09821,8.60183841 6.15787776,7.37139171 3.17206902,8.08821158 C2.17082375,8.3925133 1.10583256,8.41982077 0.0903080148,8.16723109 C0.225770037,6.93114014 0.338655056,6.14658926 0.338655056,6.14658926 C0.338655056,6.14658926 44.6855346,-0.982099661 46.4634736,0.632156104 C46.8811482,0.993388163 47.1577165,2.29721013 47.3157555,4.15416868 Z" id="Path"></path>
            </g>
            <path d="M318.098694,317.37623 C318.098694,317.37623 317.686663,322.456055 312.945493,324.324303 C308.204322,326.19255 303.056765,328.721174 299.551685,327.710853 C296.046605,326.700532 288.635704,327.710853 288.635704,327.710853 C288.635704,327.710853 273.695372,326.480406 270.709563,327.197226 C267.723754,327.914046 266.194162,326.994033 267.102887,325.66199 C268.011611,324.329947 267.932592,319.944364 267.932592,318.104338 C267.932592,316.264312 266.899694,308.802612 267.825351,307.476214 C268.751008,306.149815 269.575069,301.041767 271.432027,300.223351 C271.995182,299.989264 272.42107,299.511439 272.589099,298.925173 C272.75109,298.312959 272.75109,297.669141 272.589099,297.056926 C272.589099,297.056926 272.278665,296.802935 271.844057,296.419126 C270.754717,295.453959 268.903403,293.659087 269.496049,293.072085 C270.32011,292.253669 269.496049,286.936784 269.496049,286.936784 C269.496049,286.936784 267.537494,282.850347 268.259958,281.320755 C268.982422,279.791163 261.977907,271.725528 261.977907,271.725528 C261.977907,271.725528 261.977907,257.829382 270.444283,257.214159 C270.444283,257.214159 276.415901,257.422996 277.138365,254.764554 C277.860829,252.106112 282.596355,250.570876 282.596355,250.570876 L293.41074,252.924528 C293.41074,252.924528 303.005967,254.967747 304.744396,253.742945 C306.482825,252.518142 307.837446,255.374133 307.837446,255.374133 C307.837446,255.374133 313.809063,255.684567 314.429931,256.909369 C315.050798,258.134172 312.471376,270.088695 312.471376,270.088695 C312.471376,270.088695 308.142235,269.682309 308.452669,274.282374 C308.763103,278.882438 306.804548,284.701661 306.804548,284.701661 C306.804548,284.701661 306.494114,288.088212 306.702951,288.788099 C306.911788,289.487986 306.296565,292.01661 306.200613,292.417352 L306.200613,292.46815 C306.200613,292.46815 305.77165,294.161426 306.330431,294.787937 C306.384274,294.841004 306.445026,294.886569 306.511047,294.923399 C307.335107,295.329786 308.571198,299.314627 308.571198,299.314627 C309.215387,300.086071 309.547602,301.070638 309.5025,302.074665 C309.400903,303.711498 310.016126,307.589099 312.691501,309.841155 C315.366876,312.093211 318.098694,317.37623 318.098694,317.37623 Z" id="Path" fill="url(#linearGradient-14)"></path>
            <path d="M272.148847,293.721174 L272.148847,294.155781 L271.956942,298.936462 C271.956942,298.936462 265.624093,299.444444 262.169811,298.57523 C258.71553,297.706015 260.177391,293.930011 260.312853,293.139816 C260.312853,293.139816 260.312853,293.139816 260.312853,293.139816 C260.414449,292.422996 261.340106,286.445735 261.340106,285.474923 C261.340106,284.504112 261.340106,280.519271 261.187712,278.701822 C261.035317,276.884373 261.960974,271.753749 261.960974,271.753749 L262.626996,270.935333 L269.891147,273.695372 L272.148847,293.721174 Z" id="Path" fill="url(#linearGradient-15)"></path>
            <g id="Group" opacity="0.1" transform="translate(259.635543, 292.936623)" fill="url(#linearGradient-16)">
                <path d="M12.5020158,1.2304467 L12.3101113,6.01112724 C12.3101113,6.01112724 5.97726173,6.51910982 2.52298016,5.64989518 C-0.931301403,4.78068054 0.530559587,1.00467667 0.666021609,0.214481535 L12.5020158,1.2304467 Z" id="Path"></path>
            </g>
            <g id="Group" opacity="0.1" transform="translate(271.488470, 292.372198)" fill="url(#linearGradient-17)">
                <path d="M1.12885019,6.54168682 C1.29084154,5.92947223 1.29084154,5.28565437 1.12885019,4.67343977 C1.12885019,4.67343977 0.818416384,4.41944848 0.383809063,4.03563941 C5.84179971,3.28495404 27.442348,0.338655056 34.7234317,0.0225770037 L34.7234317,0.0733752621 C34.7234317,0.0733752621 34.2944686,1.76665054 34.8532495,2.39316239 L1.12885019,6.54168682 Z" id="Path"></path>
            </g>
            <g id="Group" opacity="0.1" transform="translate(303.096275, 302.531850)" fill="url(#linearGradient-18)">
                <path d="M3.87760039,0.101596517 C3.87760039,0.101596517 5.21528786,7.6140945 0.220125786,10.2612482 C0.220125786,10.2612482 3.05353975,6.51910982 3.87760039,0.101596517 Z" id="Path"></path>
            </g>
            <g id="Group" opacity="0.1" transform="translate(273.746170, 311.562651)" fill="url(#linearGradient-19)">
                <path d="M0.519271085,1.42235123 C0.519271085,1.42235123 12.5697468,-0.620867602 14.9403322,0.959522658 C17.3109176,2.53991292 0.519271085,1.42235123 0.519271085,1.42235123 Z" id="Path"></path>
            </g>
            <g id="Group" opacity="0.1" transform="translate(301.403000, 266.408644)" fill="url(#linearGradient-20)">
                <path d="M1.39412998,0.0338655056 C1.39412998,0.0338655056 -0.457184325,7.5915175 0.931301403,9.32994678 C2.31978713,11.0683761 1.39412998,0.0338655056 1.39412998,0.0338655056 Z" id="Path"></path>
            </g>
            <g id="Group" opacity="0.1" transform="translate(267.537494, 260.199968)" fill="url(#linearGradient-21)">
                <path d="M0.338655056,0.0564425093 C0.338655056,0.0564425093 2.03193033,2.87856797 1.01032092,5.77971295 C-0.0112885019,8.68085793 0.338655056,0.0564425093 0.338655056,0.0564425093 Z" id="Path"></path>
            </g>
            <path d="M264.376713,284.882277 C264.376713,284.882277 266.538462,286.163522 265.815997,288.155943 C265.093533,290.148363 264.376713,284.882277 264.376713,284.882277 Z" id="Path" fill="url(#linearGradient-22)"></path>
            <g id="Group" opacity="0.1" transform="translate(264.150943, 278.825996)" fill="url(#linearGradient-23)">
                <path d="M0,0.231414288 C0,0.231414288 2.00935333,1.30946622 2.25770037,2.88985647 C2.50604741,4.47024673 0,0.231414288 0,0.231414288 Z" id="Path"></path>
            </g>
            <g id="Group" opacity="0.1" transform="translate(293.501048, 338.090631)" fill="url(#linearGradient-24)">
                <path d="M0.440251572,2.07144009 C0.440251572,2.07144009 13.0607966,3.35268505 15.5837768,0.378164812 C15.5837768,0.389453314 4.19932269,2.63586518 0.440251572,2.07144009 Z" id="Path"></path>
            </g>
            <g id="Group" opacity="0.1" transform="translate(272.052895, 339.219481)" fill="url(#linearGradient-25)">
                <path d="M0.101596517,0.231414288 C0.101596517,0.231414288 13.6477987,3.39783906 16.3231737,0.891791647 C16.3231737,0.891791647 4.68472827,1.76100629 0.101596517,0.231414288 Z" id="Path"></path>
            </g>
            <g id="Group" opacity="0.1" transform="translate(294.629898, 343.734881)" fill="url(#linearGradient-26)">
                <path d="M0.287856797,0.647435897 C0.287856797,0.647435897 5.93210772,0.647435897 8.57926141,0.820512821 C11.2264151,0.993589744 0.287856797,0.647435897 0.287856797,0.647435897 Z" id="Path"></path>
            </g>
            <g id="Group" opacity="0.1" transform="translate(272.617320, 346.557007)" fill="url(#linearGradient-27)">
                <path d="M0.462828576,0.146750524 C0.462828576,0.146750524 3.24544428,3.26237704 6.3836478,2.70359619 C9.52185131,2.14481535 0.462828576,0.146750524 0.462828576,0.146750524 Z" id="Path"></path>
            </g>
            <path d="M278.543783,219.098532 C277.668924,220.441864 277.640703,221.994033 277.414933,223.484115 C276.793075,227.146236 275.068077,230.53125 272.470569,233.186583 C269.998387,235.794227 266.606193,238.153524 265.968392,241.336881 C265.364457,244.3622 267.418965,247.268989 268.497017,250.209644 C271.319142,257.970489 267.368166,266.103854 266.211095,274.113046 C265.895017,276.325593 266.278826,279.153362 269.03322,279.887115 C269.891147,280.118529 270.873246,280.090308 271.640864,280.45154 C272.679407,280.94259 272.995485,281.964199 273.187389,282.884212 C273.874987,286.172577 274.112337,289.539158 273.89292,292.891469 C273.768747,294.776649 273.633285,296.938397 275.422512,298.23093 C276.335262,298.794081 277.340338,299.191526 278.391388,299.404935 C281.213514,300.161264 284.865344,300.765199 286.767457,298.998549 C287.56894,298.259152 287.896307,297.209321 288.861474,296.622319 C290.351556,295.74746 292.46815,296.340106 294.347686,296.430414 C297.964794,296.585452 301.381278,294.76592 303.271247,291.677955 C304.78955,288.96307 304.659732,285.870021 304.095307,282.946299 C303.530882,280.022577 302.560071,277.132721 302.486696,274.175133 C302.398976,273.138825 302.631452,272.100563 303.152717,271.200613 C304.281567,269.439607 306.973875,268.638123 308.796968,267.249637 C312.217384,264.653282 312.183519,260.397517 310.964361,256.835994 C309.745202,253.274472 307.487502,249.870989 307.210934,246.190937 C307.089337,245.300392 307.268088,244.394725 307.718916,243.617159 C308.316426,242.878649 309.015767,242.228718 309.796001,241.686825 C314.791163,237.504435 314.204161,230.629737 310.072569,225.928076 C305.489437,220.695856 284.780681,209.463796 278.543783,219.098532 Z" id="Path" fill="url(#linearGradient-28)"></path>
            <g id="Group" opacity="0.1" transform="translate(265.279794, 230.849863)">
                <path d="M3.84937913,22.5713595 C4.34079573,19.4827721 4.07149711,16.320935 3.06482825,13.3599419 C2.50040316,11.875504 1.72714078,10.3967102 1.15707144,8.91227221 C0.870180319,9.44409089 0.661093302,10.0143282 0.536203838,10.6055475 C-0.0733752621,13.6252217 1.98677633,16.532011 3.06482825,19.47831 C3.4284992,20.4806876 3.69131621,21.5168294 3.84937913,22.5713595 L3.84937913,22.5713595 Z" id="Path" fill="url(#linearGradient-29)"></path>
                <path d="M8.46637639,56.0417675 C8.6865453,52.6891926 8.44727063,49.3222562 7.75520077,46.0345106 C7.56329624,45.1144977 7.24721819,44.0928882 6.21432027,43.6018384 C5.44105789,43.2349621 4.45895823,43.2631834 3.60103209,43.0374133 C2.53904462,42.7824226 1.65276855,42.0542615 1.1965812,41.0619255 C1.04418642,41.8408321 0.903080148,42.6197388 0.79019513,43.3930011 C0.468472827,45.6055475 0.85228189,48.4333172 3.61232059,49.1670698 C4.47024673,49.3984841 5.4523464,49.3702629 6.22560877,49.7314949 C7.25850669,50.2225448 7.57458474,51.2441542 7.76648928,52.1641671 C8.08623811,53.6893757 8.308694,55.2333704 8.43251089,56.7868086 C8.42122238,56.5441058 8.46637639,56.2901145 8.46637639,56.0417675 Z" id="Path" fill="url(#linearGradient-30)"></path>
                <path d="M37.8164812,54.8508305 C35.9283665,57.9378881 32.513967,59.7574605 28.8985647,59.6032898 C27.0190292,59.5129818 24.9024351,58.9203354 23.4123528,59.7951943 C22.4189647,60.3596194 22.1141751,61.4320271 21.3183358,62.171424 C19.4162232,63.9380745 15.7643928,63.3341397 12.9422674,62.57781 C11.8907739,62.3658952 10.8854423,61.9683496 9.97339139,61.4038058 C9.19413729,60.8408383 8.66874273,59.9929042 8.5115304,59.044509 C8.5115304,60.0943396 8.5115304,61.1498145 8.44379939,62.1996452 C8.31962587,64.0791808 8.18416384,66.2409289 9.97339139,67.5334623 C10.8854423,68.0980061 11.8907739,68.4955517 12.9422674,68.7074665 C15.7643928,69.4694404 19.4162232,70.067731 21.3183358,68.3010805 C22.1141751,67.5616836 22.4471859,66.5174972 23.4123528,65.9304951 C24.9024351,65.0499919 27.0190292,65.6426383 28.8985647,65.7385905 C32.5156785,65.8940332 35.9315134,64.0715339 37.8164812,60.980487 C39.2783422,58.3728431 39.2162554,55.4152556 38.7082729,52.5931301 C38.5127974,53.3820274 38.2128848,54.1412999 37.8164812,54.8508305 Z" id="Path" fill="url(#linearGradient-31)"></path>
                <path d="M44.358168,4.8427673 C43.5762247,5.38459621 42.8750105,6.03450207 42.2754394,6.77310111 C41.8269692,7.55149275 41.6502406,8.45697817 41.7731011,9.34687954 C41.8689767,10.4653721 42.1060377,11.5672318 42.4786325,12.6261893 C43.0549083,12.0203351 43.683895,11.4669023 44.358168,10.9724238 C47.7447186,8.15029834 48.5574907,4.08643767 47.462506,0.299145299 C46.8827044,2.0789862 45.8054873,3.65564033 44.358168,4.8427673 L44.358168,4.8427673 Z" id="Path" fill="url(#linearGradient-32)"></path>
                <path d="M43.3591356,30.4055797 C41.5303983,31.7884212 38.8437349,32.5899049 37.7148847,34.3565554 C37.1912018,35.2555593 36.9585529,36.2945932 37.0488631,37.3310756 C37.091463,38.5269527 37.238777,39.7167965 37.4891147,40.8869537 C37.5566806,40.7491838 37.6320601,40.6153854 37.7148847,40.4862119 C38.8437349,38.7308499 41.5303983,37.923722 43.3591356,36.5352363 C46.4804064,34.1646509 46.7456862,30.411224 45.820029,27.0641832 C45.3480295,28.3967363 44.491669,29.559501 43.3591356,30.4055797 L43.3591356,30.4055797 Z" id="Path" fill="url(#linearGradient-33)"></path>
            </g>
            <path d="M332.158523,262.508466 C330.047573,267.819706 327.315756,269.913724 327.315756,269.913724 L325.797452,269.913724 L312.431866,270.049186 L310.885341,265.861151 L313.052733,256.83035 L314.384777,256.915014 C315.18805,257.33669 316.059262,257.613721 316.958555,257.73343 C317.93501,257.73343 319.842767,257.682632 320.407192,257.936623 C320.486719,257.972519 320.57503,257.984294 320.661184,257.970489 C321.163522,257.91969 321.699726,257.169005 321.699726,257.169005 C321.699726,257.169005 334.269473,257.191582 332.158523,262.508466 Z" id="Path" fill="url(#linearGradient-34)"></path>
            <g id="Group" opacity="0.1" transform="translate(320.593453, 256.813417)" fill="url(#linearGradient-35)">
                <path d="M11.5650701,5.69504919 C9.4541203,11.0062893 6.72230285,13.1003064 6.72230285,13.1003064 L5.20399935,13.1003064 C5.99419448,10.9950008 7.66489276,6.6715046 8.31962587,5.67811643 C8.97435897,4.68472827 3.3470408,2.38187389 0.0733752621,1.11191743 C0.575713595,1.06111917 1.11191743,0.310433801 1.11191743,0.310433801 C1.11191743,0.310433801 13.67602,0.378164812 11.5650701,5.69504919 Z" id="Path"></path>
            </g>
            <path d="M321.270763,266.623125 C321.270763,266.623125 328.608289,271.398162 331.430414,268.84696 C334.25254,266.295759 333.874375,261.419126 333.49621,260.645864 C333.118045,259.872601 330.10966,249.921787 330.10966,249.921787 L324.313014,235.207225 C324.313014,235.207225 320.796646,215.8418 315.547492,220.673279 C310.298339,225.504757 318.369618,237.098049 318.369618,237.098049 C318.369618,237.098049 321.682793,245.564425 321.513466,247.2577 C321.344138,248.950976 323.359136,255.159652 323.359136,255.159652 L321.270763,266.623125 Z" id="Path" fill="#EFB7B9"></path>
            <path d="M307.5383,439.145299 C307.481858,439.382358 307.414127,439.630705 307.346396,439.884696 C306.657797,442.238349 305.365264,441.707789 301.566683,445.585389 C299.641193,447.64435 296.733929,448.467857 294.014675,447.724561 C293.587562,447.60918 293.303055,447.206129 293.337365,446.765038 L293.811482,440.477342 L294.042896,437.452024 C294.042896,437.452024 300.093533,439.145299 303.16965,436.99484 C303.271247,436.921464 303.372843,436.848089 303.468795,436.763425 C303.499553,436.742057 303.527936,436.717459 303.553459,436.69005 C304.369359,436.016074 305.523757,435.936167 306.424735,436.491303 C307.325713,437.046438 307.773422,438.113478 307.5383,439.145299 L307.5383,439.145299 Z" id="Path" fill="#4D7CFE"></path>
            <path d="M288.545396,436.774714 C288.494598,437.011772 288.426867,437.254475 288.359136,437.508466 C287.670537,439.867763 286.378004,439.331559 282.579423,443.20916 C280.655301,445.270364 277.74668,446.094256 275.027415,445.348331 C274.59892,445.234932 274.313465,444.830537 274.350105,444.388808 L274.824222,438.101113 L275.055636,435.075794 C275.055636,435.075794 281.106273,436.76907 284.18239,434.61861 C284.286104,434.548804 284.385965,434.473437 284.481535,434.39284 L284.566199,434.31382 C285.383182,433.642805 286.536437,433.565568 287.435602,434.121647 C288.334767,434.677727 288.78081,435.744033 288.545396,436.774714 L288.545396,436.774714 Z" id="Path" fill="#4D7CFE"></path>
            <path d="M282.29721,437.717304 L282.545557,440.985325 C279.074343,444.450895 274.937107,439.29205 273.717949,437.598774 C276.912595,439.224319 282.29721,437.717304 282.29721,437.717304 Z" id="Path" fill="#000000" opacity="0.1"></path>
            <path d="M302.706821,439.043703 L303.164006,438.744557 C299.991937,443.564748 295.262055,441.340913 293.811482,440.477342 L294.042896,437.452024 C294.042896,437.452024 300.093533,439.145299 303.16965,436.99484 C302.926947,438.174488 302.706821,439.043703 302.706821,439.043703 Z" id="Path" fill="#000000" opacity="0.1"></path>
            <path d="M312.358491,347.787454 C309.925818,353.866312 307.493146,374.236413 307.194001,376.573133 C306.894856,378.909853 306.962587,388.578455 306.962587,388.578455 L306.353008,412.284309 C306.279632,415.247541 304.095307,422.697952 304.095307,422.697952 C304.095307,422.697952 303.338978,428.906628 303.717142,430.983712 C304.095307,433.060797 302.729398,438.434124 302.729398,438.434124 L303.186583,438.129334 C299.388002,443.903403 293.382519,439.574262 293.382519,439.574262 C293.382519,439.574262 291.937591,432.581035 293.455894,430.831318 C294.974198,429.0816 292.925335,423.685696 292.925335,423.685696 C292.925335,423.685696 293.687308,395.639413 293.913079,394.335591 C294.138849,393.031769 292.99871,389.092082 291.937591,385.824061 C290.876472,382.556039 292.54717,369.630705 292.925335,367.277052 C293.303499,364.923399 292.77294,354.199323 292.394775,351.998065 C292.01661,349.796807 292.846315,340.596678 292.846315,340.596678 C291.328012,336.036123 290.114498,340.139494 290.114498,340.139494 L288.895339,352.07144 L287.580229,376.573133 C287.580229,376.573133 287.732624,384.0179 286.592485,386.16836 C285.452346,388.31882 284.470247,393.742945 284.470247,393.742945 L285.000806,421.399774 C285.000806,421.399774 284.927431,427.179487 285.305596,429.380745 C285.683761,431.582003 284.470247,437.282696 284.470247,437.282696 C280.214482,447.31253 273.373649,436.447347 273.373649,436.447347 C273.373649,436.447347 273.678439,434.754072 274.282374,434.545235 C274.886309,434.336397 274.056604,430.21045 273.599419,429.527496 C273.142235,428.844541 273.678439,423.883245 273.678439,423.883245 C273.678439,423.883245 273.114014,419.396065 272.306886,414.000161 C271.499758,408.604257 271.702951,387.776971 272.233511,386.484438 C272.76407,385.191905 273.221255,379.186422 273.221255,379.186422 C273.221255,379.186422 272.611676,375.766005 273.373649,373.333333 C274.135623,370.900661 271.550556,360.639413 271.550556,359.499274 C271.550556,358.359136 270.562812,351.292533 270.026609,350.53056 C269.677581,349.875642 269.495354,349.144793 269.496049,348.402677 C269.496049,348.402677 269.422674,346.884373 268.13014,342.323819 C267.18755,338.993711 267.740687,332.429447 268.13014,329.121916 C268.265602,327.897113 268.378487,327.118207 268.378487,327.118207 C268.378487,327.118207 312.008547,320.051605 313.758265,321.648928 C314.164651,322.021448 314.441219,323.342203 314.593614,325.154007 C315.062087,331.215933 314.226738,343.097081 312.358491,347.787454 Z" id="Path" fill="#444053"></path>
            <path d="M295.865989,381.935172 C296.069182,381.935172 300.883728,382.341558 302.63909,381.98597 C304.394453,381.630382 295.865989,381.935172 295.865989,381.935172 Z" id="Path" fill="#000000" opacity="0.1"></path>
            <path d="M296.221577,384.77423 C296.221577,384.77423 302.859216,385.94259 303.214804,385.338655 C303.570392,384.73472 296.221577,384.77423 296.221577,384.77423 Z" id="Path" fill="#000000" opacity="0.1"></path>
            <path d="M275.902274,383.560716 C275.902274,383.560716 279.345267,383.713111 281.219158,384.571037 C283.09305,385.428963 275.902274,383.560716 275.902274,383.560716 Z" id="Path" fill="#000000" opacity="0.1"></path>
            <path d="M263.383325,298.326883 C263.383325,298.326883 263.94775,308.915498 263.637317,310.789389 C263.637317,310.789389 264.856475,319.357362 265.866796,321.513466 C266.774404,323.249175 267.844043,324.895209 269.061442,326.429608 L272.052895,305.421706 L271.347363,298.225286 L263.383325,298.326883 Z" id="Path" fill="#EFB7B9"></path>
            <circle id="Oval" fill="#EFB7B9" cx="294.80487" cy="238.379294" r="11.7061764"></circle>
            <path d="M288.720368,243.854217 C288.720368,243.854217 285.074182,250.994194 281.422351,254.341235 C277.770521,257.688276 303.316401,261.486857 303.92598,261.486857 C304.535559,261.486857 299.365425,246.281245 300.274149,244.458152 C301.182874,242.635059 288.720368,243.854217 288.720368,243.854217 Z" id="Path" fill="#EFB7B9"></path>
            <path d="M314.565393,325.21045 C313.993596,325.648784 313.362729,326.004121 312.691501,326.265925 C308.02935,328.089018 302.960813,330.623287 299.512175,329.607321 C296.063538,328.591356 288.788099,329.607321 288.788099,329.607321 C288.788099,329.607321 274.113046,328.393807 271.155459,329.099339 C270.16234,329.398239 269.106367,329.41971 268.101919,329.161426 C268.237381,327.936623 268.350266,327.157716 268.350266,327.157716 C268.350266,327.157716 311.980326,320.091114 313.730044,321.688437 C314.13643,322.060958 314.412998,323.353491 314.565393,325.21045 Z" id="Path" fill="#000000" opacity="0.1"></path>
            <path d="M317.771327,318.437349 C317.771327,318.437349 317.364941,323.517175 312.691501,325.328979 C308.018062,327.140784 302.960813,329.686341 299.512175,328.67602 C296.063538,327.665699 288.788099,328.67602 288.788099,328.67602 C288.788099,328.67602 274.113046,327.456862 271.155459,328.168037 C268.197871,328.879213 266.696501,327.964844 267.605225,326.64409 C268.513949,325.323335 268.417997,320.999839 268.417997,319.148524 C268.417997,317.29721 267.402032,309.925818 268.316401,308.605064 C269.230769,307.284309 270.009676,302.221416 271.866634,301.408644 C272.418885,301.173456 272.834251,300.69994 272.995485,300.121755 C273.15225,299.514606 273.15225,298.877589 272.995485,298.27044 C272.995485,298.27044 272.690695,298.016449 272.261732,297.638284 C271.189324,296.678761 269.371876,294.900822 269.958878,294.319465 C270.766005,293.506692 269.958878,288.234962 269.958878,288.234962 C269.958878,288.234962 268.028544,284.18239 268.739719,282.664086 C269.450895,281.145783 262.531043,273.136591 262.531043,273.136591 C262.531043,273.136591 262.531043,259.35333 270.845025,258.743751 C270.845025,258.743751 276.72069,258.946944 277.431866,256.311079 C278.143041,253.675214 282.805193,252.15691 282.805193,252.15691 L293.444606,254.487986 C293.444606,254.487986 302.870505,256.514272 304.592001,255.300758 C306.313498,254.087244 307.611676,256.915014 307.611676,256.915014 C307.611676,256.915014 313.487341,257.219803 314.09692,258.433317 C314.706499,259.646831 312.17223,271.505402 312.17223,271.505402 C312.17223,271.505402 307.916465,271.104661 308.221255,275.665215 C308.526044,280.22577 306.59571,285.999839 306.59571,285.999839 C306.59571,285.999839 306.290921,289.34688 306.494114,290.052411 C306.697307,290.757942 306.093372,293.258345 306.003064,293.653443 L306.003064,293.704241 C306.003064,293.704241 305.585389,295.397517 306.132882,296.001451 C306.181696,296.057708 306.241163,296.103747 306.307854,296.136913 C307.120626,296.537655 308.339784,300.494275 308.339784,300.494275 C308.971104,301.260615 309.29499,302.234285 309.248508,303.226093 C309.146912,304.851637 309.756491,308.701016 312.392356,310.930495 C315.028221,313.159974 317.771327,318.437349 317.771327,318.437349 Z" id="Path" fill="#4D7CFE"></path>
            <path d="M272.555233,294.979842 L272.555233,295.408805 L272.368973,300.149976 C272.368973,300.149976 266.160297,300.657958 262.773746,299.794388 C259.387196,298.930818 260.809547,295.188679 260.939365,294.404128 C261.040961,293.692953 261.95533,287.760845 261.95533,286.801322 C261.95533,285.8418 261.95533,281.88518 261.802935,280.062087 C261.65054,278.238994 262.559265,273.170456 262.559265,273.170456 L263.219642,272.357684 L270.365264,275.095146 L272.555233,294.979842 Z" id="Path" fill="#4D7CFE"></path>
            <path d="M272.5383,295.408805 L272.35204,300.149976 C272.35204,300.149976 266.143364,300.657958 262.756813,299.794388 C259.370263,298.930818 260.792614,295.188679 260.922432,294.404128 L272.5383,295.408805 Z" id="Path" fill="#000000" opacity="0.1"></path>
            <path d="M272.98984,300.127399 C273.146606,299.52025 273.146606,298.883233 272.98984,298.276085 C272.98984,298.276085 272.685051,298.022093 272.256088,297.643928 C277.629415,296.898887 298.880019,293.98081 306.042574,293.692953 L306.042574,293.743751 C306.042574,293.743751 305.624899,295.437026 306.172392,296.040961 L272.98984,300.127399 Z" id="Path" fill="#000000" opacity="0.1"></path>
            <path d="M306.810192,303.796162 C306.810192,303.796162 308.130947,311.246573 303.214804,313.882438 C303.214804,313.882438 306.003064,310.185454 306.810192,303.796162 Z" id="Path" fill="#000000" opacity="0.1"></path>
            <path d="M274.632317,314.085631 C274.632317,314.085631 286.485244,312.059345 288.821964,313.628447 C291.158684,315.197549 274.632317,314.085631 274.632317,314.085631 Z" id="Path" fill="#000000" opacity="0.1"></path>
            <path d="M302.706821,267.921303 C302.706821,267.921303 300.883728,275.422512 302.249637,277.144009 C303.615546,278.865506 302.706821,267.921303 302.706821,267.921303 Z" id="Path" fill="#000000" opacity="0.1"></path>
            <path d="M268.350266,261.791647 C268.350266,261.791647 270.043541,264.574262 269.010643,267.464119 C267.977746,270.353975 268.350266,261.791647 268.350266,261.791647 Z" id="Path" fill="#000000" opacity="0.1"></path>
            <path d="M264.907273,286.21432 C264.907273,286.21432 267.035156,287.484277 266.32398,289.459765 C265.612804,291.435252 264.907273,286.21432 264.907273,286.21432 Z" id="Path" fill="#4D7CFE"></path>
            <path d="M264.715368,280.440252 C264.715368,280.440252 266.690856,281.501371 266.944848,283.070473 C267.198839,284.639574 264.715368,280.440252 264.715368,280.440252 Z" id="Path" fill="#000000" opacity="0.1"></path>
            <path d="M293.992098,341.042574 C293.992098,341.042574 306.40945,342.31253 308.887276,339.349299 C308.887276,339.371876 297.689082,341.578778 293.992098,341.042574 Z" id="Path" fill="#000000" opacity="0.1"></path>
            <path d="M272.555233,340.331398 C272.555233,340.331398 285.881309,343.475246 288.517175,340.991776 C288.517175,341.014353 277.06499,341.855346 272.555233,340.331398 Z" id="Path" fill="#000000" opacity="0.1"></path>
            <path d="M294.951621,345.145944 C294.951621,345.145944 300.528141,345.145944 303.113208,345.298339 C305.698274,345.450734 294.951621,345.145944 294.951621,345.145944 Z" id="Path" fill="#000000" opacity="0.1"></path>
            <path d="M273.469602,347.527818 C273.469602,347.527818 276.207063,350.620868 279.294469,350.062087 C282.381874,349.503306 273.469602,347.527818 273.469602,347.527818 Z" id="Path" fill="#000000" opacity="0.1"></path>
            <path d="M278.825996,220.938558 C277.96807,222.270602 277.939848,223.811482 277.697146,225.290276 C277.082894,228.907066 275.386496,232.252631 272.831801,234.885502 C270.404773,237.470569 267.069021,239.812933 266.436865,242.96807 C265.844219,245.965167 267.864861,248.849379 268.92598,251.767457 C271.748105,259.460571 267.797129,267.53185 266.668279,275.473311 C266.352201,277.668924 266.730366,280.474117 269.433962,281.202225 C270.2806,281.427995 271.245767,281.399774 272.007741,281.766651 C273.023706,282.252056 273.33414,283.268021 273.5204,284.176746 C274.200345,287.439454 274.435776,290.779151 274.220287,294.104983 C274.096114,295.97323 273.960652,298.118045 275.721658,299.404935 C276.621209,299.959564 277.610611,300.353032 278.64538,300.56765 C281.422351,301.318336 285.012095,301.910982 286.885986,300.161264 C287.670537,299.427512 287.964038,298.38897 288.946138,297.807612 C290.413643,296.938397 292.496372,297.525399 294.342042,297.615707 C297.908423,297.763815 301.272317,295.95748 303.118852,292.902758 C304.614578,290.204806 304.484761,287.145622 303.931624,284.244477 C303.378487,281.343332 302.418965,278.476052 302.351234,275.541042 C302.262676,274.515071 302.491216,273.486645 303.005967,272.594743 C304.134817,270.845025 306.759394,270.049186 308.55991,268.677633 C311.94646,266.103854 311.912595,261.904532 310.693437,258.348653 C309.474278,254.792775 307.267376,251.44009 306.996452,247.78826 C306.877004,246.906379 307.051576,246.009715 307.493146,245.237059 C308.1023,244.521351 308.806894,243.892725 309.587163,243.368811 C314.503306,239.220287 313.921948,232.402032 309.858087,227.739881 C305.353975,222.54717 284.978229,211.411063 278.825996,220.938558 Z" id="Path" fill="#E3787D"></path>
            <g id="Group" opacity="0.1" transform="translate(265.844219, 232.543138)" fill="#000000">
                <path d="M3.74213836,22.4641187 C4.22104379,19.3997852 3.95385444,16.2651506 2.96323174,13.3260764 C2.43267215,11.8529269 1.65376552,10.391066 1.08369618,8.91791647 C0.803859873,9.45173682 0.598746273,10.0214968 0.474117078,10.6111917 C-0.118529269,13.608289 1.90211256,16.4925012 2.96323174,19.4105789 C3.32395221,20.399933 3.58488462,21.4228637 3.74213836,22.4641187 L3.74213836,22.4641187 Z" id="Path"></path>
                <path d="M8.26882761,55.6636026 C8.48431623,52.337771 8.2488856,48.9980737 7.56894049,45.7353653 C7.38268021,44.8266409 7.07224641,43.8106757 6.05628124,43.3252701 C5.29430737,42.9583938 4.32914046,42.9866151 3.48250282,42.760845 C2.43688136,42.502566 1.56616135,41.7814685 1.11756168,40.80229 C0.965166909,41.5699081 0.829704886,42.3431705 0.716819868,43.1107886 C0.400741816,45.3064022 0.778906628,48.1115949 3.48250282,48.8397033 C4.32914046,49.0654733 5.29430737,49.0372521 6.05628124,49.4041284 C7.07224641,49.8951782 7.38268021,50.9054991 7.56894049,51.8198678 C7.88219854,53.3324908 8.10086688,54.8631692 8.2236736,56.4029995 C8.2349621,56.1546525 8.25189486,55.9063054 8.26882761,55.6636026 Z" id="Path"></path>
                <path d="M37.1673924,54.4613772 C35.3217292,57.5170156 31.9572467,59.323667 28.3905822,59.1743267 C26.5449121,59.0840187 24.4396065,58.4970166 22.9946783,59.3662313 C22.0182229,59.9306563 21.7190776,60.9861313 20.9345267,61.7198839 C19.0606354,63.4696017 15.4708918,62.8769553 12.6939203,62.12627 C11.65955,61.9132395 10.6714139,61.5176028 9.77584261,60.95791 C9.01060755,60.3947377 8.49284577,59.5574198 8.33091437,58.6211901 C8.33091437,59.6597323 8.33091437,60.7039187 8.26882761,61.7424609 C8.14465409,63.610708 8.00919207,65.7555233 9.77584261,67.0424125 C10.6731444,67.5974737 11.660774,67.9909973 12.6939203,68.2051282 C15.4708918,68.9558136 19.0606354,69.5484599 20.9345267,67.8043864 C21.7190776,67.0649895 22.0182229,66.0264473 22.9946783,65.4450895 C24.4621835,64.5758749 26.5449121,65.162877 28.3905822,65.253185 C31.9572467,65.4025252 35.3217292,63.5958739 37.1673924,60.5402354 C38.6066763,57.9495243 38.5445896,55.020158 38.0422512,52.2206096 C37.8501427,53.0026606 37.5560002,53.756045 37.1673924,54.4613772 Z" id="Path"></path>
                <path d="M43.5905499,4.88227705 C42.8206777,5.42013848 42.1308718,6.06433737 41.5416868,6.79567812 C41.1001166,7.56833435 40.9255448,8.46499853 41.0449927,9.34687954 C41.1444351,10.4569625 41.3794811,11.5506847 41.7448799,12.6036123 C42.3079588,12.0001931 42.9258325,11.4503422 43.5905499,10.9611353 C46.9150137,8.13900984 47.7221416,4.13159168 46.6440897,0.378164812 C46.0770068,2.14021009 45.0174337,3.70312939 43.5905499,4.88227705 Z" id="Path"></path>
                <path d="M42.6084502,30.2362522 C40.8079342,31.6078052 38.1833575,32.4036446 37.0545073,34.1477181 C36.5416844,35.0424291 36.3133211,36.0720325 36.3997742,37.0996613 C36.4432781,38.2858292 36.5886827,39.4660608 36.8343816,40.6273182 C36.8966164,40.4897138 36.9702482,40.3575543 37.0545073,40.2322206 C38.1833575,38.4825028 40.8079342,37.6866634 42.6084502,36.3151105 C45.6789228,33.9614578 45.9385583,30.2418965 45.0298339,26.9230769 C44.5646034,28.2407755 43.7226386,29.3928345 42.6084502,30.2362522 Z" id="Path"></path>
            </g>
            <path d="M331.594098,264.021126 C329.517013,269.292856 326.824706,271.358652 326.824706,271.358652 L325.328979,271.358652 L312.183519,271.494114 L310.665215,267.339945 L312.793098,258.37123 L314.108208,258.422029 C314.898467,258.84018 315.756425,259.115338 316.642477,259.234801 C317.607644,259.234801 319.464602,259.184003 320.029028,259.437994 C320.107198,259.471629 320.193053,259.483337 320.277375,259.471859 C320.774069,259.421061 321.29334,258.67602 321.29334,258.67602 C321.29334,258.67602 333.665538,258.749395 331.594098,264.021126 Z" id="Path" fill="#4D7CFE"></path>
            <path d="M331.594098,264.021126 C329.517013,269.292856 326.824706,271.358652 326.824706,271.358652 L325.328979,271.358652 C326.11353,269.270279 327.756007,264.986293 328.399452,264.021126 C329.042896,263.055959 323.505886,260.753104 320.288663,259.505725 C320.785357,259.454927 321.304628,258.709886 321.304628,258.709886 C321.304628,258.709886 333.665538,258.749395 331.594098,264.021126 Z" id="Path" fill="#000000" opacity="0.1"></path>
        </g>
    </g>
</svg>